G04 (created by PCBNEW-RS274X (2012-apr-16-27)-stable) date Sat 25 Jan 2014 11:43:21 AM EET*
G01*
G70*
G90*
%MOIN*%
G04 Gerber Fmt 3.4, Leading zero omitted, Abs format*
%FSLAX34Y34*%
G04 APERTURE LIST*
%ADD10C,0.006000*%
%ADD11C,0.005000*%
%ADD12C,0.008000*%
%ADD13C,0.004500*%
G04 APERTURE END LIST*
G54D10*
G54D11*
X65750Y-40850D02*
X61750Y-40850D01*
X61750Y-40850D02*
X61750Y-44150D01*
X61750Y-44150D02*
X65750Y-44150D01*
X65750Y-44150D02*
X65750Y-40850D01*
X61750Y-42750D02*
X62050Y-42750D01*
X62050Y-42750D02*
X62050Y-42250D01*
X62050Y-42250D02*
X61750Y-42250D01*
X44750Y-37850D02*
X40750Y-37850D01*
X40750Y-37850D02*
X40750Y-41150D01*
X40750Y-41150D02*
X44750Y-41150D01*
X44750Y-41150D02*
X44750Y-37850D01*
X40750Y-39750D02*
X41050Y-39750D01*
X41050Y-39750D02*
X41050Y-39250D01*
X41050Y-39250D02*
X40750Y-39250D01*
X42450Y-36800D02*
X42449Y-36809D01*
X42446Y-36819D01*
X42441Y-36827D01*
X42435Y-36835D01*
X42427Y-36841D01*
X42419Y-36846D01*
X42410Y-36848D01*
X42400Y-36849D01*
X42391Y-36849D01*
X42382Y-36846D01*
X42373Y-36841D01*
X42366Y-36835D01*
X42359Y-36828D01*
X42355Y-36819D01*
X42352Y-36810D01*
X42351Y-36800D01*
X42351Y-36791D01*
X42354Y-36782D01*
X42358Y-36773D01*
X42365Y-36766D01*
X42372Y-36759D01*
X42380Y-36755D01*
X42390Y-36752D01*
X42399Y-36751D01*
X42408Y-36751D01*
X42418Y-36754D01*
X42426Y-36758D01*
X42434Y-36764D01*
X42440Y-36772D01*
X42445Y-36780D01*
X42448Y-36789D01*
X42449Y-36799D01*
X42450Y-36800D01*
X41950Y-36800D02*
X42350Y-36800D01*
X42350Y-36800D02*
X42350Y-36200D01*
X42350Y-36200D02*
X41950Y-36200D01*
X41550Y-36200D02*
X41150Y-36200D01*
X41150Y-36200D02*
X41150Y-36800D01*
X41150Y-36800D02*
X41550Y-36800D01*
X65450Y-39800D02*
X65449Y-39809D01*
X65446Y-39819D01*
X65441Y-39827D01*
X65435Y-39835D01*
X65427Y-39841D01*
X65419Y-39846D01*
X65410Y-39848D01*
X65400Y-39849D01*
X65391Y-39849D01*
X65382Y-39846D01*
X65373Y-39841D01*
X65366Y-39835D01*
X65359Y-39828D01*
X65355Y-39819D01*
X65352Y-39810D01*
X65351Y-39800D01*
X65351Y-39791D01*
X65354Y-39782D01*
X65358Y-39773D01*
X65365Y-39766D01*
X65372Y-39759D01*
X65380Y-39755D01*
X65390Y-39752D01*
X65399Y-39751D01*
X65408Y-39751D01*
X65418Y-39754D01*
X65426Y-39758D01*
X65434Y-39764D01*
X65440Y-39772D01*
X65445Y-39780D01*
X65448Y-39789D01*
X65449Y-39799D01*
X65450Y-39800D01*
X64950Y-39800D02*
X65350Y-39800D01*
X65350Y-39800D02*
X65350Y-39200D01*
X65350Y-39200D02*
X64950Y-39200D01*
X64550Y-39200D02*
X64150Y-39200D01*
X64150Y-39200D02*
X64150Y-39800D01*
X64150Y-39800D02*
X64550Y-39800D01*
X79450Y-32300D02*
X79449Y-32309D01*
X79446Y-32319D01*
X79441Y-32327D01*
X79435Y-32335D01*
X79427Y-32341D01*
X79419Y-32346D01*
X79410Y-32348D01*
X79400Y-32349D01*
X79391Y-32349D01*
X79382Y-32346D01*
X79373Y-32341D01*
X79366Y-32335D01*
X79359Y-32328D01*
X79355Y-32319D01*
X79352Y-32310D01*
X79351Y-32300D01*
X79351Y-32291D01*
X79354Y-32282D01*
X79358Y-32273D01*
X79365Y-32266D01*
X79372Y-32259D01*
X79380Y-32255D01*
X79390Y-32252D01*
X79399Y-32251D01*
X79408Y-32251D01*
X79418Y-32254D01*
X79426Y-32258D01*
X79434Y-32264D01*
X79440Y-32272D01*
X79445Y-32280D01*
X79448Y-32289D01*
X79449Y-32299D01*
X79450Y-32300D01*
X78950Y-32300D02*
X79350Y-32300D01*
X79350Y-32300D02*
X79350Y-31700D01*
X79350Y-31700D02*
X78950Y-31700D01*
X78550Y-31700D02*
X78150Y-31700D01*
X78150Y-31700D02*
X78150Y-32300D01*
X78150Y-32300D02*
X78550Y-32300D01*
X62600Y-38600D02*
X62599Y-38609D01*
X62596Y-38619D01*
X62591Y-38627D01*
X62585Y-38635D01*
X62577Y-38641D01*
X62569Y-38646D01*
X62560Y-38648D01*
X62550Y-38649D01*
X62541Y-38649D01*
X62532Y-38646D01*
X62523Y-38641D01*
X62516Y-38635D01*
X62509Y-38628D01*
X62505Y-38619D01*
X62502Y-38610D01*
X62501Y-38600D01*
X62501Y-38591D01*
X62504Y-38582D01*
X62508Y-38573D01*
X62515Y-38566D01*
X62522Y-38559D01*
X62530Y-38555D01*
X62540Y-38552D01*
X62549Y-38551D01*
X62558Y-38551D01*
X62568Y-38554D01*
X62576Y-38558D01*
X62584Y-38564D01*
X62590Y-38572D01*
X62595Y-38580D01*
X62598Y-38589D01*
X62599Y-38599D01*
X62600Y-38600D01*
X62550Y-39050D02*
X62550Y-38650D01*
X62550Y-38650D02*
X61950Y-38650D01*
X61950Y-38650D02*
X61950Y-39050D01*
X61950Y-39450D02*
X61950Y-39850D01*
X61950Y-39850D02*
X62550Y-39850D01*
X62550Y-39850D02*
X62550Y-39450D01*
X45250Y-41900D02*
X45249Y-41909D01*
X45246Y-41919D01*
X45241Y-41927D01*
X45235Y-41935D01*
X45227Y-41941D01*
X45219Y-41946D01*
X45210Y-41948D01*
X45200Y-41949D01*
X45191Y-41949D01*
X45182Y-41946D01*
X45173Y-41941D01*
X45166Y-41935D01*
X45159Y-41928D01*
X45155Y-41919D01*
X45152Y-41910D01*
X45151Y-41900D01*
X45151Y-41891D01*
X45154Y-41882D01*
X45158Y-41873D01*
X45165Y-41866D01*
X45172Y-41859D01*
X45180Y-41855D01*
X45190Y-41852D01*
X45199Y-41851D01*
X45208Y-41851D01*
X45218Y-41854D01*
X45226Y-41858D01*
X45234Y-41864D01*
X45240Y-41872D01*
X45245Y-41880D01*
X45248Y-41889D01*
X45249Y-41899D01*
X45250Y-41900D01*
X45200Y-41450D02*
X45200Y-41850D01*
X45200Y-41850D02*
X45800Y-41850D01*
X45800Y-41850D02*
X45800Y-41450D01*
X45800Y-41050D02*
X45800Y-40650D01*
X45800Y-40650D02*
X45200Y-40650D01*
X45200Y-40650D02*
X45200Y-41050D01*
X44450Y-36800D02*
X44449Y-36809D01*
X44446Y-36819D01*
X44441Y-36827D01*
X44435Y-36835D01*
X44427Y-36841D01*
X44419Y-36846D01*
X44410Y-36848D01*
X44400Y-36849D01*
X44391Y-36849D01*
X44382Y-36846D01*
X44373Y-36841D01*
X44366Y-36835D01*
X44359Y-36828D01*
X44355Y-36819D01*
X44352Y-36810D01*
X44351Y-36800D01*
X44351Y-36791D01*
X44354Y-36782D01*
X44358Y-36773D01*
X44365Y-36766D01*
X44372Y-36759D01*
X44380Y-36755D01*
X44390Y-36752D01*
X44399Y-36751D01*
X44408Y-36751D01*
X44418Y-36754D01*
X44426Y-36758D01*
X44434Y-36764D01*
X44440Y-36772D01*
X44445Y-36780D01*
X44448Y-36789D01*
X44449Y-36799D01*
X44450Y-36800D01*
X43950Y-36800D02*
X44350Y-36800D01*
X44350Y-36800D02*
X44350Y-36200D01*
X44350Y-36200D02*
X43950Y-36200D01*
X43550Y-36200D02*
X43150Y-36200D01*
X43150Y-36200D02*
X43150Y-36800D01*
X43150Y-36800D02*
X43550Y-36800D01*
X66250Y-44650D02*
X66249Y-44659D01*
X66246Y-44669D01*
X66241Y-44677D01*
X66235Y-44685D01*
X66227Y-44691D01*
X66219Y-44696D01*
X66210Y-44698D01*
X66200Y-44699D01*
X66191Y-44699D01*
X66182Y-44696D01*
X66173Y-44691D01*
X66166Y-44685D01*
X66159Y-44678D01*
X66155Y-44669D01*
X66152Y-44660D01*
X66151Y-44650D01*
X66151Y-44641D01*
X66154Y-44632D01*
X66158Y-44623D01*
X66165Y-44616D01*
X66172Y-44609D01*
X66180Y-44605D01*
X66190Y-44602D01*
X66199Y-44601D01*
X66208Y-44601D01*
X66218Y-44604D01*
X66226Y-44608D01*
X66234Y-44614D01*
X66240Y-44622D01*
X66245Y-44630D01*
X66248Y-44639D01*
X66249Y-44649D01*
X66250Y-44650D01*
X66200Y-44200D02*
X66200Y-44600D01*
X66200Y-44600D02*
X66800Y-44600D01*
X66800Y-44600D02*
X66800Y-44200D01*
X66800Y-43800D02*
X66800Y-43400D01*
X66800Y-43400D02*
X66200Y-43400D01*
X66200Y-43400D02*
X66200Y-43800D01*
X76150Y-29200D02*
X76149Y-29209D01*
X76146Y-29219D01*
X76141Y-29227D01*
X76135Y-29235D01*
X76127Y-29241D01*
X76119Y-29246D01*
X76110Y-29248D01*
X76100Y-29249D01*
X76091Y-29249D01*
X76082Y-29246D01*
X76073Y-29241D01*
X76066Y-29235D01*
X76059Y-29228D01*
X76055Y-29219D01*
X76052Y-29210D01*
X76051Y-29200D01*
X76051Y-29191D01*
X76054Y-29182D01*
X76058Y-29173D01*
X76065Y-29166D01*
X76072Y-29159D01*
X76080Y-29155D01*
X76090Y-29152D01*
X76099Y-29151D01*
X76108Y-29151D01*
X76118Y-29154D01*
X76126Y-29158D01*
X76134Y-29164D01*
X76140Y-29172D01*
X76145Y-29180D01*
X76148Y-29189D01*
X76149Y-29199D01*
X76150Y-29200D01*
X76550Y-29200D02*
X76150Y-29200D01*
X76150Y-29200D02*
X76150Y-29800D01*
X76150Y-29800D02*
X76550Y-29800D01*
X76950Y-29800D02*
X77350Y-29800D01*
X77350Y-29800D02*
X77350Y-29200D01*
X77350Y-29200D02*
X76950Y-29200D01*
X76650Y-32200D02*
X76649Y-32209D01*
X76646Y-32219D01*
X76641Y-32227D01*
X76635Y-32235D01*
X76627Y-32241D01*
X76619Y-32246D01*
X76610Y-32248D01*
X76600Y-32249D01*
X76591Y-32249D01*
X76582Y-32246D01*
X76573Y-32241D01*
X76566Y-32235D01*
X76559Y-32228D01*
X76555Y-32219D01*
X76552Y-32210D01*
X76551Y-32200D01*
X76551Y-32191D01*
X76554Y-32182D01*
X76558Y-32173D01*
X76565Y-32166D01*
X76572Y-32159D01*
X76580Y-32155D01*
X76590Y-32152D01*
X76599Y-32151D01*
X76608Y-32151D01*
X76618Y-32154D01*
X76626Y-32158D01*
X76634Y-32164D01*
X76640Y-32172D01*
X76645Y-32180D01*
X76648Y-32189D01*
X76649Y-32199D01*
X76650Y-32200D01*
X77050Y-32200D02*
X76650Y-32200D01*
X76650Y-32200D02*
X76650Y-32800D01*
X76650Y-32800D02*
X77050Y-32800D01*
X77450Y-32800D02*
X77850Y-32800D01*
X77850Y-32800D02*
X77850Y-32200D01*
X77850Y-32200D02*
X77450Y-32200D01*
X82500Y-37050D02*
X82500Y-37950D01*
X82500Y-37950D02*
X83000Y-37950D01*
X83000Y-37950D02*
X83000Y-37050D01*
X83000Y-37050D02*
X82500Y-37050D01*
X82000Y-40050D02*
X82000Y-40950D01*
X82000Y-40950D02*
X82500Y-40950D01*
X82500Y-40950D02*
X82500Y-40050D01*
X82500Y-40050D02*
X82000Y-40050D01*
G54D12*
X64093Y-41632D02*
X64093Y-41996D01*
X64071Y-42039D01*
X64050Y-42061D01*
X64007Y-42082D01*
X63921Y-42082D01*
X63879Y-42061D01*
X63857Y-42039D01*
X63836Y-41996D01*
X63836Y-41632D01*
X63665Y-41632D02*
X63386Y-41632D01*
X63536Y-41804D01*
X63472Y-41804D01*
X63429Y-41825D01*
X63408Y-41846D01*
X63386Y-41889D01*
X63386Y-41996D01*
X63408Y-42039D01*
X63429Y-42061D01*
X63472Y-42082D01*
X63600Y-42082D01*
X63643Y-42061D01*
X63665Y-42039D01*
X43093Y-38632D02*
X43093Y-38996D01*
X43071Y-39039D01*
X43050Y-39061D01*
X43007Y-39082D01*
X42921Y-39082D01*
X42879Y-39061D01*
X42857Y-39039D01*
X42836Y-38996D01*
X42836Y-38632D01*
X42386Y-39082D02*
X42643Y-39082D01*
X42515Y-39082D02*
X42515Y-38632D01*
X42558Y-38696D01*
X42600Y-38739D01*
X42643Y-38761D01*
G54D11*
X41911Y-36077D02*
X41923Y-36089D01*
X41958Y-36101D01*
X41982Y-36101D01*
X42018Y-36089D01*
X42042Y-36065D01*
X42053Y-36042D01*
X42065Y-35994D01*
X42065Y-35958D01*
X42053Y-35911D01*
X42042Y-35887D01*
X42018Y-35863D01*
X41982Y-35851D01*
X41958Y-35851D01*
X41923Y-35863D01*
X41911Y-35875D01*
X41673Y-36101D02*
X41815Y-36101D01*
X41744Y-36101D02*
X41744Y-35851D01*
X41768Y-35887D01*
X41792Y-35911D01*
X41815Y-35923D01*
X41435Y-36101D02*
X41577Y-36101D01*
X41506Y-36101D02*
X41506Y-35851D01*
X41530Y-35887D01*
X41554Y-35911D01*
X41577Y-35923D01*
X64911Y-39077D02*
X64923Y-39089D01*
X64958Y-39101D01*
X64982Y-39101D01*
X65018Y-39089D01*
X65042Y-39065D01*
X65053Y-39042D01*
X65065Y-38994D01*
X65065Y-38958D01*
X65053Y-38911D01*
X65042Y-38887D01*
X65018Y-38863D01*
X64982Y-38851D01*
X64958Y-38851D01*
X64923Y-38863D01*
X64911Y-38875D01*
X64673Y-39101D02*
X64815Y-39101D01*
X64744Y-39101D02*
X64744Y-38851D01*
X64768Y-38887D01*
X64792Y-38911D01*
X64815Y-38923D01*
X64577Y-38875D02*
X64565Y-38863D01*
X64542Y-38851D01*
X64482Y-38851D01*
X64458Y-38863D01*
X64446Y-38875D01*
X64435Y-38899D01*
X64435Y-38923D01*
X64446Y-38958D01*
X64589Y-39101D01*
X64435Y-39101D01*
X78911Y-31577D02*
X78923Y-31589D01*
X78958Y-31601D01*
X78982Y-31601D01*
X79018Y-31589D01*
X79042Y-31565D01*
X79053Y-31542D01*
X79065Y-31494D01*
X79065Y-31458D01*
X79053Y-31411D01*
X79042Y-31387D01*
X79018Y-31363D01*
X78982Y-31351D01*
X78958Y-31351D01*
X78923Y-31363D01*
X78911Y-31375D01*
X78673Y-31601D02*
X78815Y-31601D01*
X78744Y-31601D02*
X78744Y-31351D01*
X78768Y-31387D01*
X78792Y-31411D01*
X78815Y-31423D01*
X78589Y-31351D02*
X78435Y-31351D01*
X78518Y-31446D01*
X78482Y-31446D01*
X78458Y-31458D01*
X78446Y-31470D01*
X78435Y-31494D01*
X78435Y-31554D01*
X78446Y-31577D01*
X78458Y-31589D01*
X78482Y-31601D01*
X78554Y-31601D01*
X78577Y-31589D01*
X78589Y-31577D01*
X61827Y-39089D02*
X61839Y-39077D01*
X61851Y-39042D01*
X61851Y-39018D01*
X61839Y-38982D01*
X61815Y-38958D01*
X61792Y-38947D01*
X61744Y-38935D01*
X61708Y-38935D01*
X61661Y-38947D01*
X61637Y-38958D01*
X61613Y-38982D01*
X61601Y-39018D01*
X61601Y-39042D01*
X61613Y-39077D01*
X61625Y-39089D01*
X61851Y-39327D02*
X61851Y-39185D01*
X61851Y-39256D02*
X61601Y-39256D01*
X61637Y-39232D01*
X61661Y-39208D01*
X61673Y-39185D01*
X61685Y-39542D02*
X61851Y-39542D01*
X61589Y-39482D02*
X61768Y-39423D01*
X61768Y-39577D01*
X46077Y-41208D02*
X46089Y-41196D01*
X46101Y-41161D01*
X46101Y-41137D01*
X46089Y-41101D01*
X46065Y-41077D01*
X46042Y-41066D01*
X45994Y-41054D01*
X45958Y-41054D01*
X45911Y-41066D01*
X45887Y-41077D01*
X45863Y-41101D01*
X45851Y-41137D01*
X45851Y-41161D01*
X45863Y-41196D01*
X45875Y-41208D01*
X46101Y-41446D02*
X46101Y-41304D01*
X46101Y-41375D02*
X45851Y-41375D01*
X45887Y-41351D01*
X45911Y-41327D01*
X45923Y-41304D01*
X43792Y-36077D02*
X43804Y-36089D01*
X43839Y-36101D01*
X43863Y-36101D01*
X43899Y-36089D01*
X43923Y-36065D01*
X43934Y-36042D01*
X43946Y-35994D01*
X43946Y-35958D01*
X43934Y-35911D01*
X43923Y-35887D01*
X43899Y-35863D01*
X43863Y-35851D01*
X43839Y-35851D01*
X43804Y-35863D01*
X43792Y-35875D01*
X43577Y-35935D02*
X43577Y-36101D01*
X43637Y-35839D02*
X43696Y-36018D01*
X43542Y-36018D01*
X67077Y-43958D02*
X67089Y-43946D01*
X67101Y-43911D01*
X67101Y-43887D01*
X67089Y-43851D01*
X67065Y-43827D01*
X67042Y-43816D01*
X66994Y-43804D01*
X66958Y-43804D01*
X66911Y-43816D01*
X66887Y-43827D01*
X66863Y-43851D01*
X66851Y-43887D01*
X66851Y-43911D01*
X66863Y-43946D01*
X66875Y-43958D01*
X66875Y-44054D02*
X66863Y-44066D01*
X66851Y-44089D01*
X66851Y-44149D01*
X66863Y-44173D01*
X66875Y-44185D01*
X66899Y-44196D01*
X66923Y-44196D01*
X66958Y-44185D01*
X67101Y-44042D01*
X67101Y-44196D01*
X76792Y-30077D02*
X76804Y-30089D01*
X76839Y-30101D01*
X76863Y-30101D01*
X76899Y-30089D01*
X76923Y-30065D01*
X76934Y-30042D01*
X76946Y-29994D01*
X76946Y-29958D01*
X76934Y-29911D01*
X76923Y-29887D01*
X76899Y-29863D01*
X76863Y-29851D01*
X76839Y-29851D01*
X76804Y-29863D01*
X76792Y-29875D01*
X76708Y-29851D02*
X76542Y-29851D01*
X76649Y-30101D01*
X77292Y-33077D02*
X77304Y-33089D01*
X77339Y-33101D01*
X77363Y-33101D01*
X77399Y-33089D01*
X77423Y-33065D01*
X77434Y-33042D01*
X77446Y-32994D01*
X77446Y-32958D01*
X77434Y-32911D01*
X77423Y-32887D01*
X77399Y-32863D01*
X77363Y-32851D01*
X77339Y-32851D01*
X77304Y-32863D01*
X77292Y-32875D01*
X77173Y-33101D02*
X77125Y-33101D01*
X77101Y-33089D01*
X77089Y-33077D01*
X77065Y-33042D01*
X77054Y-32994D01*
X77054Y-32899D01*
X77065Y-32875D01*
X77077Y-32863D01*
X77101Y-32851D01*
X77149Y-32851D01*
X77173Y-32863D01*
X77184Y-32875D01*
X77196Y-32899D01*
X77196Y-32958D01*
X77184Y-32982D01*
X77173Y-32994D01*
X77149Y-33006D01*
X77101Y-33006D01*
X77077Y-32994D01*
X77065Y-32982D01*
X77054Y-32958D01*
G54D13*
X82863Y-37385D02*
X82730Y-37325D01*
X82863Y-37282D02*
X82583Y-37282D01*
X82583Y-37350D01*
X82597Y-37368D01*
X82610Y-37376D01*
X82637Y-37385D01*
X82677Y-37385D01*
X82703Y-37376D01*
X82717Y-37368D01*
X82730Y-37350D01*
X82730Y-37282D01*
X82863Y-37556D02*
X82863Y-37453D01*
X82863Y-37505D02*
X82583Y-37505D01*
X82623Y-37488D01*
X82650Y-37470D01*
X82663Y-37453D01*
X82583Y-37667D02*
X82583Y-37684D01*
X82597Y-37701D01*
X82610Y-37710D01*
X82637Y-37719D01*
X82690Y-37727D01*
X82757Y-37727D01*
X82810Y-37719D01*
X82837Y-37710D01*
X82850Y-37701D01*
X82863Y-37684D01*
X82863Y-37667D01*
X82850Y-37650D01*
X82837Y-37641D01*
X82810Y-37633D01*
X82757Y-37624D01*
X82690Y-37624D01*
X82637Y-37633D01*
X82610Y-37641D01*
X82597Y-37650D01*
X82583Y-37667D01*
X82363Y-40385D02*
X82230Y-40325D01*
X82363Y-40282D02*
X82083Y-40282D01*
X82083Y-40350D01*
X82097Y-40368D01*
X82110Y-40376D01*
X82137Y-40385D01*
X82177Y-40385D01*
X82203Y-40376D01*
X82217Y-40368D01*
X82230Y-40350D01*
X82230Y-40282D01*
X82363Y-40556D02*
X82363Y-40453D01*
X82363Y-40505D02*
X82083Y-40505D01*
X82123Y-40488D01*
X82150Y-40470D01*
X82163Y-40453D01*
X82363Y-40727D02*
X82363Y-40624D01*
X82363Y-40676D02*
X82083Y-40676D01*
X82123Y-40659D01*
X82150Y-40641D01*
X82163Y-40624D01*
M02*
