G04 (created by PCBNEW-RS274X (2012-apr-16-27)-stable) date Sat 08 Mar 2014 10:36:18 AM EET*
G01*
G70*
G90*
%MOIN*%
G04 Gerber Fmt 3.4, Leading zero omitted, Abs format*
%FSLAX34Y34*%
G04 APERTURE LIST*
%ADD10C,0.006000*%
%ADD11C,0.015000*%
%ADD12C,0.012000*%
%ADD13C,0.012500*%
%ADD14C,0.010000*%
%ADD15C,0.008000*%
%ADD16C,0.010700*%
%ADD17C,0.010600*%
G04 APERTURE END LIST*
G54D10*
G54D11*
X24150Y00000D02*
X24132Y-00174D01*
X24082Y-00342D01*
X23999Y-00498D01*
X23888Y-00634D01*
X23753Y-00746D01*
X23598Y-00829D01*
X23430Y-00881D01*
X23256Y-00899D01*
X23082Y-00884D01*
X22913Y-00834D01*
X22758Y-00753D01*
X22621Y-00643D01*
X22508Y-00508D01*
X22423Y-00354D01*
X22370Y-00187D01*
X22351Y-00012D01*
X22365Y00162D01*
X22414Y00331D01*
X22494Y00487D01*
X22603Y00625D01*
X22737Y00739D01*
X22890Y00824D01*
X23057Y00879D01*
X23232Y00899D01*
X23406Y00886D01*
X23575Y00839D01*
X23732Y00759D01*
X23870Y00651D01*
X23985Y00518D01*
X24072Y00366D01*
X24127Y00199D01*
X24149Y00025D01*
X24150Y00000D01*
G54D12*
X16500Y13500D02*
X15000Y12000D01*
X15000Y12000D02*
X15000Y11500D01*
X15000Y11500D02*
X15500Y11000D01*
X15500Y11000D02*
X16500Y11000D01*
X16500Y11000D02*
X17500Y12000D01*
X17500Y12000D02*
X17500Y13000D01*
X17500Y13000D02*
X17000Y13500D01*
X17000Y13500D02*
X16500Y13500D01*
X17750Y10250D02*
X16250Y08750D01*
X16250Y08750D02*
X16250Y08250D01*
X16250Y08250D02*
X16750Y07750D01*
X16750Y07750D02*
X17750Y07750D01*
X17750Y07750D02*
X18750Y08750D01*
X18750Y08750D02*
X18750Y09750D01*
X18750Y09750D02*
X18250Y10250D01*
X18250Y10250D02*
X17750Y10250D01*
G54D11*
X03750Y40250D02*
X03500Y40250D01*
X03500Y40250D02*
X03500Y44250D01*
X03500Y44250D02*
X03750Y44250D01*
X05250Y40250D02*
X03750Y40250D01*
X03750Y40250D02*
X03750Y44250D01*
X03750Y44250D02*
X05250Y44250D01*
X05250Y44250D02*
X05250Y40250D01*
X03750Y20250D02*
X03500Y20250D01*
X03500Y20250D02*
X03500Y24250D01*
X03500Y24250D02*
X03750Y24250D01*
X05250Y20250D02*
X03750Y20250D01*
X03750Y20250D02*
X03750Y24250D01*
X03750Y24250D02*
X05250Y24250D01*
X05250Y24250D02*
X05250Y20250D01*
X03750Y30250D02*
X03500Y30250D01*
X03500Y30250D02*
X03500Y34250D01*
X03500Y34250D02*
X03750Y34250D01*
X05250Y30250D02*
X03750Y30250D01*
X03750Y30250D02*
X03750Y34250D01*
X03750Y34250D02*
X05250Y34250D01*
X05250Y34250D02*
X05250Y30250D01*
X03750Y00250D02*
X03500Y00250D01*
X03500Y00250D02*
X03500Y04250D01*
X03500Y04250D02*
X03750Y04250D01*
X05250Y00250D02*
X03750Y00250D01*
X03750Y00250D02*
X03750Y04250D01*
X03750Y04250D02*
X05250Y04250D01*
X05250Y04250D02*
X05250Y00250D01*
X03750Y10250D02*
X03500Y10250D01*
X03500Y10250D02*
X03500Y14250D01*
X03500Y14250D02*
X03750Y14250D01*
X05250Y10250D02*
X03750Y10250D01*
X03750Y10250D02*
X03750Y14250D01*
X03750Y14250D02*
X05250Y14250D01*
X05250Y14250D02*
X05250Y10250D01*
X05250Y47250D02*
X05250Y45250D01*
X11750Y47250D02*
X11750Y45250D01*
X11750Y45250D02*
X05250Y45250D01*
X05250Y47250D02*
X11750Y47250D01*
G54D12*
X04500Y46250D02*
X04500Y46250D01*
X04500Y46250D02*
X04500Y46250D01*
X11750Y46250D02*
X12500Y46250D01*
X12500Y46250D02*
X12500Y46250D01*
X05250Y46750D02*
X05750Y47250D01*
X04500Y46250D02*
X05250Y46250D01*
G54D11*
X18250Y10250D02*
X21250Y10250D01*
X21250Y11250D02*
X18250Y11250D01*
X21250Y10750D02*
X21250Y11250D01*
X21750Y10750D02*
X21250Y10750D01*
X21250Y10750D02*
X21250Y10250D01*
X18250Y10750D02*
X18250Y11250D01*
X17750Y10750D02*
X18250Y10750D01*
X18250Y10750D02*
X18250Y10250D01*
G54D12*
X21250Y10500D02*
X21000Y10250D01*
G54D11*
X06000Y14750D02*
X06000Y11750D01*
X07000Y11750D02*
X07000Y14750D01*
X06500Y11750D02*
X07000Y11750D01*
X06500Y11250D02*
X06500Y11750D01*
X06500Y11750D02*
X06000Y11750D01*
X06500Y14750D02*
X07000Y14750D01*
X06500Y15250D02*
X06500Y14750D01*
X06500Y14750D02*
X06000Y14750D01*
G54D12*
X06250Y11750D02*
X06000Y12000D01*
G54D11*
X11500Y01750D02*
X08500Y01750D01*
X08500Y00750D02*
X11500Y00750D01*
X08500Y01250D02*
X08500Y00750D01*
X08000Y01250D02*
X08500Y01250D01*
X08500Y01250D02*
X08500Y01750D01*
X11500Y01250D02*
X11500Y00750D01*
X12000Y01250D02*
X11500Y01250D01*
X11500Y01250D02*
X11500Y01750D01*
G54D12*
X08500Y01500D02*
X08750Y01750D01*
G54D11*
X11500Y10250D02*
X08500Y10250D01*
X08500Y09250D02*
X11500Y09250D01*
X08500Y09750D02*
X08500Y09250D01*
X08000Y09750D02*
X08500Y09750D01*
X08500Y09750D02*
X08500Y10250D01*
X11500Y09750D02*
X11500Y09250D01*
X12000Y09750D02*
X11500Y09750D01*
X11500Y09750D02*
X11500Y10250D01*
G54D12*
X08500Y10000D02*
X08750Y10250D01*
G54D11*
X18250Y07000D02*
X21250Y07000D01*
X21250Y08000D02*
X18250Y08000D01*
X21250Y07500D02*
X21250Y08000D01*
X21750Y07500D02*
X21250Y07500D01*
X21250Y07500D02*
X21250Y07000D01*
X18250Y07500D02*
X18250Y08000D01*
X17750Y07500D02*
X18250Y07500D01*
X18250Y07500D02*
X18250Y07000D01*
G54D12*
X21250Y07250D02*
X21000Y07000D01*
G54D11*
X17750Y04500D02*
X14750Y04500D01*
X14750Y03500D02*
X17750Y03500D01*
X14750Y04000D02*
X14750Y03500D01*
X14250Y04000D02*
X14750Y04000D01*
X14750Y04000D02*
X14750Y04500D01*
X17750Y04000D02*
X17750Y03500D01*
X18250Y04000D02*
X17750Y04000D01*
X17750Y04000D02*
X17750Y04500D01*
G54D12*
X14750Y04250D02*
X15000Y04500D01*
G54D11*
X18500Y23250D02*
X18500Y20250D01*
X19500Y20250D02*
X19500Y23250D01*
X19000Y20250D02*
X19500Y20250D01*
X19000Y19750D02*
X19000Y20250D01*
X19000Y20250D02*
X18500Y20250D01*
X19000Y23250D02*
X19500Y23250D01*
X19000Y23750D02*
X19000Y23250D01*
X19000Y23250D02*
X18500Y23250D01*
G54D12*
X18750Y20250D02*
X18500Y20500D01*
G54D11*
X06000Y04750D02*
X06000Y01750D01*
X07000Y01750D02*
X07000Y04750D01*
X06500Y01750D02*
X07000Y01750D01*
X06500Y01250D02*
X06500Y01750D01*
X06500Y01750D02*
X06000Y01750D01*
X06500Y04750D02*
X07000Y04750D01*
X06500Y05250D02*
X06500Y04750D01*
X06500Y04750D02*
X06000Y04750D01*
G54D12*
X06250Y01750D02*
X06000Y02000D01*
G54D11*
X06000Y34750D02*
X06000Y31750D01*
X07000Y31750D02*
X07000Y34750D01*
X06500Y31750D02*
X07000Y31750D01*
X06500Y31250D02*
X06500Y31750D01*
X06500Y31750D02*
X06000Y31750D01*
X06500Y34750D02*
X07000Y34750D01*
X06500Y35250D02*
X06500Y34750D01*
X06500Y34750D02*
X06000Y34750D01*
G54D12*
X06250Y31750D02*
X06000Y32000D01*
G54D11*
X06000Y24750D02*
X06000Y21750D01*
X07000Y21750D02*
X07000Y24750D01*
X06500Y21750D02*
X07000Y21750D01*
X06500Y21250D02*
X06500Y21750D01*
X06500Y21750D02*
X06000Y21750D01*
X06500Y24750D02*
X07000Y24750D01*
X06500Y25250D02*
X06500Y24750D01*
X06500Y24750D02*
X06000Y24750D01*
G54D12*
X06250Y21750D02*
X06000Y22000D01*
G54D11*
X08500Y30750D02*
X11500Y30750D01*
X11500Y31750D02*
X08500Y31750D01*
X11500Y31250D02*
X11500Y31750D01*
X12000Y31250D02*
X11500Y31250D01*
X11500Y31250D02*
X11500Y30750D01*
X08500Y31250D02*
X08500Y31750D01*
X08000Y31250D02*
X08500Y31250D01*
X08500Y31250D02*
X08500Y30750D01*
G54D12*
X11500Y31000D02*
X11250Y30750D01*
G54D11*
X08500Y20750D02*
X11500Y20750D01*
X11500Y21750D02*
X08500Y21750D01*
X11500Y21250D02*
X11500Y21750D01*
X12000Y21250D02*
X11500Y21250D01*
X11500Y21250D02*
X11500Y20750D01*
X08500Y21250D02*
X08500Y21750D01*
X08000Y21250D02*
X08500Y21250D01*
X08500Y21250D02*
X08500Y20750D01*
G54D12*
X11500Y21000D02*
X11250Y20750D01*
G54D11*
X21250Y13250D02*
X18250Y13250D01*
X18250Y12250D02*
X21250Y12250D01*
X18250Y12750D02*
X18250Y12250D01*
X17750Y12750D02*
X18250Y12750D01*
X18250Y12750D02*
X18250Y13250D01*
X21250Y12750D02*
X21250Y12250D01*
X21750Y12750D02*
X21250Y12750D01*
X21250Y12750D02*
X21250Y13250D01*
G54D12*
X18250Y13000D02*
X18500Y13250D01*
G54D11*
X16000Y23250D02*
X16000Y20250D01*
X17000Y20250D02*
X17000Y23250D01*
X16500Y20250D02*
X17000Y20250D01*
X16500Y19750D02*
X16500Y20250D01*
X16500Y20250D02*
X16000Y20250D01*
X16500Y23250D02*
X17000Y23250D01*
X16500Y23750D02*
X16500Y23250D01*
X16500Y23250D02*
X16000Y23250D01*
G54D12*
X16250Y20250D02*
X16000Y20500D01*
G54D11*
X17250Y23250D02*
X17250Y20250D01*
X18250Y20250D02*
X18250Y23250D01*
X17750Y20250D02*
X18250Y20250D01*
X17750Y19750D02*
X17750Y20250D01*
X17750Y20250D02*
X17250Y20250D01*
X17750Y23250D02*
X18250Y23250D01*
X17750Y23750D02*
X17750Y23250D01*
X17750Y23250D02*
X17250Y23250D01*
G54D12*
X17500Y20250D02*
X17250Y20500D01*
G54D11*
X14750Y23250D02*
X14750Y20250D01*
X15750Y20250D02*
X15750Y23250D01*
X15250Y20250D02*
X15750Y20250D01*
X15250Y19750D02*
X15250Y20250D01*
X15250Y20250D02*
X14750Y20250D01*
X15250Y23250D02*
X15750Y23250D01*
X15250Y23750D02*
X15250Y23250D01*
X15250Y23250D02*
X14750Y23250D01*
G54D12*
X15000Y20250D02*
X14750Y20500D01*
G54D11*
X17750Y03250D02*
X14750Y03250D01*
X14750Y02250D02*
X17750Y02250D01*
X14750Y02750D02*
X14750Y02250D01*
X14250Y02750D02*
X14750Y02750D01*
X14750Y02750D02*
X14750Y03250D01*
X17750Y02750D02*
X17750Y02250D01*
X18250Y02750D02*
X17750Y02750D01*
X17750Y02750D02*
X17750Y03250D01*
G54D12*
X14750Y03000D02*
X15000Y03250D01*
G54D11*
X17750Y02000D02*
X14750Y02000D01*
X14750Y01000D02*
X17750Y01000D01*
X14750Y01500D02*
X14750Y01000D01*
X14250Y01500D02*
X14750Y01500D01*
X14750Y01500D02*
X14750Y02000D01*
X17750Y01500D02*
X17750Y01000D01*
X18250Y01500D02*
X17750Y01500D01*
X17750Y01500D02*
X17750Y02000D01*
G54D12*
X14750Y01750D02*
X15000Y02000D01*
X16500Y37250D02*
X06500Y37250D01*
X06500Y37250D02*
X06500Y39250D01*
X06500Y39250D02*
X16500Y39250D01*
X16500Y39250D02*
X16500Y37250D01*
X13500Y37250D02*
X13500Y39250D01*
X09500Y37250D02*
X09500Y39250D01*
G54D11*
X05250Y15650D02*
X03500Y15650D01*
X03750Y15250D02*
X03500Y15250D01*
X03500Y15250D02*
X03500Y19250D01*
X03500Y19250D02*
X03750Y19250D01*
X05250Y15250D02*
X03750Y15250D01*
X03750Y15250D02*
X03750Y19250D01*
X03750Y19250D02*
X05250Y19250D01*
X05250Y19250D02*
X05250Y15250D01*
X05250Y05650D02*
X03500Y05650D01*
X03750Y05250D02*
X03500Y05250D01*
X03500Y05250D02*
X03500Y09250D01*
X03500Y09250D02*
X03750Y09250D01*
X05250Y05250D02*
X03750Y05250D01*
X03750Y05250D02*
X03750Y09250D01*
X03750Y09250D02*
X05250Y09250D01*
X05250Y09250D02*
X05250Y05250D01*
X05250Y35650D02*
X03500Y35650D01*
X03750Y35250D02*
X03500Y35250D01*
X03500Y35250D02*
X03500Y39250D01*
X03500Y39250D02*
X03750Y39250D01*
X05250Y35250D02*
X03750Y35250D01*
X03750Y35250D02*
X03750Y39250D01*
X03750Y39250D02*
X05250Y39250D01*
X05250Y39250D02*
X05250Y35250D01*
X05250Y25650D02*
X03500Y25650D01*
X03750Y25250D02*
X03500Y25250D01*
X03500Y25250D02*
X03500Y29250D01*
X03500Y29250D02*
X03750Y29250D01*
X05250Y25250D02*
X03750Y25250D01*
X03750Y25250D02*
X03750Y29250D01*
X03750Y29250D02*
X05250Y29250D01*
X05250Y29250D02*
X05250Y25250D01*
G54D13*
X08500Y22750D02*
X08000Y22750D01*
X11500Y22750D02*
X12000Y22750D01*
X11500Y22750D02*
X11200Y22750D01*
G54D12*
X11200Y22750D02*
X11200Y23150D01*
X11200Y23150D02*
X08800Y23150D01*
X08800Y23150D02*
X08800Y22750D01*
X08800Y22750D02*
X08500Y22750D01*
X08800Y22750D02*
X08800Y22350D01*
X08800Y22350D02*
X11200Y22350D01*
X11200Y22350D02*
X11200Y22750D01*
X11000Y23150D02*
X11000Y22350D01*
X10900Y22350D02*
X10900Y23150D01*
G54D13*
X08500Y04250D02*
X08500Y03750D01*
X08500Y07250D02*
X08500Y07750D01*
X08500Y07250D02*
X08500Y06950D01*
G54D12*
X08500Y06950D02*
X08100Y06950D01*
X08100Y06950D02*
X08100Y04550D01*
X08100Y04550D02*
X08500Y04550D01*
X08500Y04550D02*
X08500Y04250D01*
X08500Y04550D02*
X08900Y04550D01*
X08900Y04550D02*
X08900Y06950D01*
X08900Y06950D02*
X08500Y06950D01*
X08100Y06750D02*
X08900Y06750D01*
X08900Y06650D02*
X08100Y06650D01*
G54D13*
X08500Y11250D02*
X08000Y11250D01*
X11500Y11250D02*
X12000Y11250D01*
X11500Y11250D02*
X11200Y11250D01*
G54D12*
X11200Y11250D02*
X11200Y11650D01*
X11200Y11650D02*
X08800Y11650D01*
X08800Y11650D02*
X08800Y11250D01*
X08800Y11250D02*
X08500Y11250D01*
X08800Y11250D02*
X08800Y10850D01*
X08800Y10850D02*
X11200Y10850D01*
X11200Y10850D02*
X11200Y11250D01*
X11000Y11650D02*
X11000Y10850D01*
X10900Y10850D02*
X10900Y11650D01*
G54D13*
X08500Y02750D02*
X08000Y02750D01*
X11500Y02750D02*
X12000Y02750D01*
X11500Y02750D02*
X11200Y02750D01*
G54D12*
X11200Y02750D02*
X11200Y03150D01*
X11200Y03150D02*
X08800Y03150D01*
X08800Y03150D02*
X08800Y02750D01*
X08800Y02750D02*
X08500Y02750D01*
X08800Y02750D02*
X08800Y02350D01*
X08800Y02350D02*
X11200Y02350D01*
X11200Y02350D02*
X11200Y02750D01*
X11000Y03150D02*
X11000Y02350D01*
X10900Y02350D02*
X10900Y03150D01*
G54D13*
X08500Y32750D02*
X08000Y32750D01*
X11500Y32750D02*
X12000Y32750D01*
X11500Y32750D02*
X11200Y32750D01*
G54D12*
X11200Y32750D02*
X11200Y33150D01*
X11200Y33150D02*
X08800Y33150D01*
X08800Y33150D02*
X08800Y32750D01*
X08800Y32750D02*
X08500Y32750D01*
X08800Y32750D02*
X08800Y32350D01*
X08800Y32350D02*
X11200Y32350D01*
X11200Y32350D02*
X11200Y32750D01*
X11000Y33150D02*
X11000Y32350D01*
X10900Y32350D02*
X10900Y33150D01*
G54D13*
X12000Y25750D02*
X12000Y25250D01*
X12000Y28750D02*
X12000Y29250D01*
X12000Y28750D02*
X12000Y28450D01*
G54D12*
X12000Y28450D02*
X11600Y28450D01*
X11600Y28450D02*
X11600Y26050D01*
X11600Y26050D02*
X12000Y26050D01*
X12000Y26050D02*
X12000Y25750D01*
X12000Y26050D02*
X12400Y26050D01*
X12400Y26050D02*
X12400Y28450D01*
X12400Y28450D02*
X12000Y28450D01*
X11600Y28250D02*
X12400Y28250D01*
X12400Y28150D02*
X11600Y28150D01*
X20000Y00500D02*
X19000Y00500D01*
X19000Y00500D02*
X19000Y05500D01*
X19000Y05500D02*
X20000Y05500D01*
X20000Y05500D02*
X20000Y00500D01*
X20000Y01500D02*
X19000Y01500D01*
X17500Y47250D02*
X17500Y46250D01*
X17500Y46250D02*
X14500Y46250D01*
X14500Y46250D02*
X14500Y47250D01*
X14500Y47250D02*
X17500Y47250D01*
X16500Y46250D02*
X16500Y47250D01*
G54D11*
X17500Y45750D02*
X17500Y39750D01*
X17500Y39750D02*
X13500Y39750D01*
X13500Y39750D02*
X13500Y45750D01*
X13500Y45750D02*
X17500Y45750D01*
X11500Y19250D02*
X11500Y13250D01*
X11500Y13250D02*
X07500Y13250D01*
X07500Y13250D02*
X07500Y19250D01*
X07500Y19250D02*
X11500Y19250D01*
X09984Y42250D02*
X09946Y41865D01*
X09834Y41494D01*
X09652Y41153D01*
X09407Y40853D01*
X09109Y40606D01*
X08768Y40422D01*
X08398Y40307D01*
X08013Y40267D01*
X07629Y40302D01*
X07257Y40411D01*
X06914Y40590D01*
X06612Y40833D01*
X06363Y41130D01*
X06177Y41469D01*
X06060Y41838D01*
X06017Y42223D01*
X06049Y42608D01*
X06156Y42980D01*
X06333Y43324D01*
X06573Y43628D01*
X06868Y43879D01*
X07206Y44068D01*
X07574Y44187D01*
X07959Y44233D01*
X08344Y44203D01*
X08717Y44099D01*
X09063Y43925D01*
X09368Y43686D01*
X09621Y43393D01*
X09812Y43056D01*
X09934Y42689D01*
X09983Y42305D01*
X09984Y42250D01*
X18287Y33750D02*
X18262Y33501D01*
X18189Y33260D01*
X18071Y33038D01*
X17913Y32844D01*
X17719Y32684D01*
X17498Y32564D01*
X17258Y32490D01*
X17008Y32464D01*
X16759Y32486D01*
X16518Y32557D01*
X16296Y32674D01*
X16100Y32831D01*
X15939Y33023D01*
X15818Y33243D01*
X15742Y33483D01*
X15714Y33733D01*
X15735Y33982D01*
X15804Y34223D01*
X15919Y34447D01*
X16075Y34644D01*
X16266Y34806D01*
X16485Y34929D01*
X16724Y35006D01*
X16974Y35036D01*
X17223Y35017D01*
X17465Y34949D01*
X17689Y34836D01*
X17887Y34682D01*
X18051Y34491D01*
X18175Y34273D01*
X18255Y34035D01*
X18286Y33785D01*
X18287Y33750D01*
X08287Y08250D02*
X08262Y08001D01*
X08189Y07760D01*
X08071Y07538D01*
X07913Y07344D01*
X07719Y07184D01*
X07498Y07064D01*
X07258Y06990D01*
X07008Y06964D01*
X06759Y06986D01*
X06518Y07057D01*
X06296Y07174D01*
X06100Y07331D01*
X05939Y07523D01*
X05818Y07743D01*
X05742Y07983D01*
X05714Y08233D01*
X05735Y08482D01*
X05804Y08723D01*
X05919Y08947D01*
X06075Y09144D01*
X06266Y09306D01*
X06485Y09429D01*
X06724Y09506D01*
X06974Y09536D01*
X07223Y09517D01*
X07465Y09449D01*
X07689Y09336D01*
X07887Y09182D01*
X08051Y08991D01*
X08175Y08773D01*
X08255Y08535D01*
X08286Y08285D01*
X08287Y08250D01*
X11287Y28500D02*
X11262Y28251D01*
X11189Y28010D01*
X11071Y27788D01*
X10913Y27594D01*
X10719Y27434D01*
X10498Y27314D01*
X10258Y27240D01*
X10008Y27214D01*
X09759Y27236D01*
X09518Y27307D01*
X09296Y27424D01*
X09100Y27581D01*
X08939Y27773D01*
X08818Y27993D01*
X08742Y28233D01*
X08714Y28483D01*
X08735Y28732D01*
X08804Y28973D01*
X08919Y29197D01*
X09075Y29394D01*
X09266Y29556D01*
X09485Y29679D01*
X09724Y29756D01*
X09974Y29786D01*
X10223Y29767D01*
X10465Y29699D01*
X10689Y29586D01*
X10887Y29432D01*
X11051Y29241D01*
X11175Y29023D01*
X11255Y28785D01*
X11286Y28535D01*
X11287Y28500D01*
X13287Y42750D02*
X13262Y42501D01*
X13189Y42260D01*
X13071Y42038D01*
X12913Y41844D01*
X12719Y41684D01*
X12498Y41564D01*
X12258Y41490D01*
X12008Y41464D01*
X11759Y41486D01*
X11518Y41557D01*
X11296Y41674D01*
X11100Y41831D01*
X10939Y42023D01*
X10818Y42243D01*
X10742Y42483D01*
X10714Y42733D01*
X10735Y42982D01*
X10804Y43223D01*
X10919Y43447D01*
X11075Y43644D01*
X11266Y43806D01*
X11485Y43929D01*
X11724Y44006D01*
X11974Y44036D01*
X12223Y44017D01*
X12465Y43949D01*
X12689Y43836D01*
X12887Y43682D01*
X13051Y43491D01*
X13175Y43273D01*
X13255Y43035D01*
X13286Y42785D01*
X13287Y42750D01*
G54D12*
X06100Y17850D02*
X06100Y20650D01*
X06100Y20650D02*
X06900Y20650D01*
X06900Y20650D02*
X06900Y17850D01*
X06900Y17850D02*
X06100Y17850D01*
X06300Y17850D02*
X06100Y18050D01*
G54D11*
X07750Y26000D02*
X10750Y26000D01*
X10750Y27000D02*
X07750Y27000D01*
X10750Y26500D02*
X10750Y27000D01*
X11250Y26500D02*
X10750Y26500D01*
X10750Y26500D02*
X10750Y26000D01*
X07750Y26500D02*
X07750Y27000D01*
X07250Y26500D02*
X07750Y26500D01*
X07750Y26500D02*
X07750Y26000D01*
G54D12*
X10750Y26250D02*
X10500Y26000D01*
G54D14*
X22860Y01038D02*
X22631Y01038D01*
X22745Y01038D02*
X22745Y01438D01*
X22707Y01381D01*
X22669Y01343D01*
X22631Y01324D01*
X23031Y01038D02*
X23031Y01438D01*
X23184Y01438D01*
X23222Y01419D01*
X23241Y01400D01*
X23260Y01362D01*
X23260Y01305D01*
X23241Y01267D01*
X23222Y01248D01*
X23184Y01229D01*
X23031Y01229D01*
X23431Y01038D02*
X23431Y01438D01*
X23621Y01038D02*
X23621Y01438D01*
X23850Y01038D01*
X23850Y01438D01*
G54D15*
X16462Y10300D02*
X16424Y10319D01*
X16386Y10357D01*
X16329Y10414D01*
X16290Y10433D01*
X16252Y10433D01*
X16271Y10338D02*
X16233Y10357D01*
X16195Y10395D01*
X16176Y10471D01*
X16176Y10605D01*
X16195Y10681D01*
X16233Y10719D01*
X16271Y10738D01*
X16348Y10738D01*
X16386Y10719D01*
X16424Y10681D01*
X16443Y10605D01*
X16443Y10471D01*
X16424Y10395D01*
X16386Y10357D01*
X16348Y10338D01*
X16271Y10338D01*
X16786Y10738D02*
X16709Y10738D01*
X16671Y10719D01*
X16652Y10700D01*
X16614Y10643D01*
X16595Y10567D01*
X16595Y10414D01*
X16614Y10376D01*
X16633Y10357D01*
X16671Y10338D01*
X16748Y10338D01*
X16786Y10357D01*
X16805Y10376D01*
X16824Y10414D01*
X16824Y10510D01*
X16805Y10548D01*
X16786Y10567D01*
X16748Y10586D01*
X16671Y10586D01*
X16633Y10567D01*
X16614Y10548D01*
X16595Y10510D01*
X15129Y14048D02*
X15186Y14029D01*
X15205Y14010D01*
X15224Y13971D01*
X15224Y13914D01*
X15205Y13876D01*
X15186Y13857D01*
X15148Y13838D01*
X14995Y13838D01*
X14995Y14238D01*
X15129Y14238D01*
X15167Y14219D01*
X15186Y14200D01*
X15205Y14162D01*
X15205Y14124D01*
X15186Y14086D01*
X15167Y14067D01*
X15129Y14048D01*
X14995Y14048D01*
X15624Y13876D02*
X15605Y13857D01*
X15548Y13838D01*
X15510Y13838D01*
X15452Y13857D01*
X15414Y13895D01*
X15395Y13933D01*
X15376Y14010D01*
X15376Y14067D01*
X15395Y14143D01*
X15414Y14181D01*
X15452Y14219D01*
X15510Y14238D01*
X15548Y14238D01*
X15605Y14219D01*
X15624Y14200D01*
X15757Y14238D02*
X16005Y14238D01*
X15871Y14086D01*
X15929Y14086D01*
X15967Y14067D01*
X15986Y14048D01*
X16005Y14010D01*
X16005Y13914D01*
X15986Y13876D01*
X15967Y13857D01*
X15929Y13838D01*
X15814Y13838D01*
X15776Y13857D01*
X15757Y13876D01*
X16138Y14238D02*
X16386Y14238D01*
X16252Y14086D01*
X16310Y14086D01*
X16348Y14067D01*
X16367Y14048D01*
X16386Y14010D01*
X16386Y13914D01*
X16367Y13876D01*
X16348Y13857D01*
X16310Y13838D01*
X16195Y13838D01*
X16157Y13857D01*
X16138Y13876D01*
X16519Y14238D02*
X16786Y14238D01*
X16614Y13838D01*
X16938Y13990D02*
X17243Y13990D01*
X17605Y14105D02*
X17605Y13838D01*
X17509Y14257D02*
X17414Y13971D01*
X17662Y13971D01*
X17890Y14238D02*
X17929Y14238D01*
X17967Y14219D01*
X17986Y14200D01*
X18005Y14162D01*
X18024Y14086D01*
X18024Y13990D01*
X18005Y13914D01*
X17986Y13876D01*
X17967Y13857D01*
X17929Y13838D01*
X17890Y13838D01*
X17852Y13857D01*
X17833Y13876D01*
X17814Y13914D01*
X17795Y13990D01*
X17795Y14086D01*
X17814Y14162D01*
X17833Y14200D01*
X17852Y14219D01*
X17890Y14238D01*
X17712Y07050D02*
X17674Y07069D01*
X17636Y07107D01*
X17579Y07164D01*
X17540Y07183D01*
X17502Y07183D01*
X17521Y07088D02*
X17483Y07107D01*
X17445Y07145D01*
X17426Y07221D01*
X17426Y07355D01*
X17445Y07431D01*
X17483Y07469D01*
X17521Y07488D01*
X17598Y07488D01*
X17636Y07469D01*
X17674Y07431D01*
X17693Y07355D01*
X17693Y07221D01*
X17674Y07145D01*
X17636Y07107D01*
X17598Y07088D01*
X17521Y07088D01*
X18074Y07088D02*
X17845Y07088D01*
X17959Y07088D02*
X17959Y07488D01*
X17921Y07431D01*
X17883Y07393D01*
X17845Y07374D01*
X16379Y10798D02*
X16436Y10779D01*
X16455Y10760D01*
X16474Y10721D01*
X16474Y10664D01*
X16455Y10626D01*
X16436Y10607D01*
X16398Y10588D01*
X16245Y10588D01*
X16245Y10988D01*
X16379Y10988D01*
X16417Y10969D01*
X16436Y10950D01*
X16455Y10912D01*
X16455Y10874D01*
X16436Y10836D01*
X16417Y10817D01*
X16379Y10798D01*
X16245Y10798D01*
X16874Y10626D02*
X16855Y10607D01*
X16798Y10588D01*
X16760Y10588D01*
X16702Y10607D01*
X16664Y10645D01*
X16645Y10683D01*
X16626Y10760D01*
X16626Y10817D01*
X16645Y10893D01*
X16664Y10931D01*
X16702Y10969D01*
X16760Y10988D01*
X16798Y10988D01*
X16855Y10969D01*
X16874Y10950D01*
X17007Y10988D02*
X17255Y10988D01*
X17121Y10836D01*
X17179Y10836D01*
X17217Y10817D01*
X17236Y10798D01*
X17255Y10760D01*
X17255Y10664D01*
X17236Y10626D01*
X17217Y10607D01*
X17179Y10588D01*
X17064Y10588D01*
X17026Y10607D01*
X17007Y10626D01*
X17388Y10988D02*
X17636Y10988D01*
X17502Y10836D01*
X17560Y10836D01*
X17598Y10817D01*
X17617Y10798D01*
X17636Y10760D01*
X17636Y10664D01*
X17617Y10626D01*
X17598Y10607D01*
X17560Y10588D01*
X17445Y10588D01*
X17407Y10607D01*
X17388Y10626D01*
X17769Y10988D02*
X18036Y10988D01*
X17864Y10588D01*
X18188Y10740D02*
X18493Y10740D01*
X18855Y10855D02*
X18855Y10588D01*
X18759Y11007D02*
X18664Y10721D01*
X18912Y10721D01*
X19140Y10988D02*
X19179Y10988D01*
X19217Y10969D01*
X19236Y10950D01*
X19255Y10912D01*
X19274Y10836D01*
X19274Y10740D01*
X19255Y10664D01*
X19236Y10626D01*
X19217Y10607D01*
X19179Y10588D01*
X19140Y10588D01*
X19102Y10607D01*
X19083Y10626D01*
X19064Y10664D01*
X19045Y10740D01*
X19045Y10836D01*
X19064Y10912D01*
X19083Y10950D01*
X19102Y10969D01*
X19140Y10988D01*
X05393Y41945D02*
X05879Y41945D01*
X05936Y41964D01*
X05964Y41983D01*
X05993Y42021D01*
X05993Y42098D01*
X05964Y42136D01*
X05936Y42155D01*
X05879Y42174D01*
X05393Y42174D01*
X05450Y42345D02*
X05421Y42364D01*
X05393Y42402D01*
X05393Y42498D01*
X05421Y42536D01*
X05450Y42555D01*
X05507Y42574D01*
X05564Y42574D01*
X05650Y42555D01*
X05993Y42326D01*
X05993Y42574D01*
X03193Y41334D02*
X03193Y41143D01*
X02593Y41143D01*
X03193Y41467D02*
X02593Y41467D01*
X03021Y41601D01*
X02593Y41734D01*
X03193Y41734D01*
X02593Y41886D02*
X02593Y42153D01*
X03193Y41981D01*
X02850Y42362D02*
X02821Y42324D01*
X02793Y42305D01*
X02736Y42286D01*
X02707Y42286D01*
X02650Y42305D01*
X02621Y42324D01*
X02593Y42362D01*
X02593Y42439D01*
X02621Y42477D01*
X02650Y42496D01*
X02707Y42515D01*
X02736Y42515D01*
X02793Y42496D01*
X02821Y42477D01*
X02850Y42439D01*
X02850Y42362D01*
X02879Y42324D01*
X02907Y42305D01*
X02964Y42286D01*
X03079Y42286D01*
X03136Y42305D01*
X03164Y42324D01*
X03193Y42362D01*
X03193Y42439D01*
X03164Y42477D01*
X03136Y42496D01*
X03079Y42515D01*
X02964Y42515D01*
X02907Y42496D01*
X02879Y42477D01*
X02850Y42439D01*
X03193Y42896D02*
X03193Y42667D01*
X03193Y42781D02*
X02593Y42781D01*
X02679Y42743D01*
X02736Y42705D01*
X02764Y42667D01*
X02650Y43048D02*
X02621Y43067D01*
X02593Y43105D01*
X02593Y43201D01*
X02621Y43239D01*
X02650Y43258D01*
X02707Y43277D01*
X02764Y43277D01*
X02850Y43258D01*
X03193Y43029D01*
X03193Y43277D01*
X06050Y22212D02*
X06021Y22174D01*
X05964Y22136D01*
X05879Y22079D01*
X05850Y22040D01*
X05850Y22002D01*
X05993Y22021D02*
X05964Y21983D01*
X05907Y21945D01*
X05793Y21926D01*
X05593Y21926D01*
X05479Y21945D01*
X05421Y21983D01*
X05393Y22021D01*
X05393Y22098D01*
X05421Y22136D01*
X05479Y22174D01*
X05593Y22193D01*
X05793Y22193D01*
X05907Y22174D01*
X05964Y22136D01*
X05993Y22098D01*
X05993Y22021D01*
X05393Y22555D02*
X05393Y22364D01*
X05679Y22345D01*
X05650Y22364D01*
X05621Y22402D01*
X05621Y22498D01*
X05650Y22536D01*
X05679Y22555D01*
X05736Y22574D01*
X05879Y22574D01*
X05936Y22555D01*
X05964Y22536D01*
X05993Y22498D01*
X05993Y22402D01*
X05964Y22364D01*
X05936Y22345D01*
X03193Y20867D02*
X02593Y20867D01*
X03193Y21286D02*
X02907Y21152D01*
X03193Y21057D02*
X02593Y21057D01*
X02593Y21210D01*
X02621Y21248D01*
X02650Y21267D01*
X02707Y21286D01*
X02793Y21286D01*
X02850Y21267D01*
X02879Y21248D01*
X02907Y21210D01*
X02907Y21057D01*
X02879Y21591D02*
X02879Y21457D01*
X03193Y21457D02*
X02593Y21457D01*
X02593Y21648D01*
X02879Y21934D02*
X02907Y21991D01*
X02936Y22010D01*
X02993Y22029D01*
X03079Y22029D01*
X03136Y22010D01*
X03164Y21991D01*
X03193Y21953D01*
X03193Y21800D01*
X02593Y21800D01*
X02593Y21934D01*
X02621Y21972D01*
X02650Y21991D01*
X02707Y22010D01*
X02764Y22010D01*
X02821Y21991D01*
X02850Y21972D01*
X02879Y21934D01*
X02879Y21800D01*
X02593Y22162D02*
X02593Y22410D01*
X02821Y22276D01*
X02821Y22334D01*
X02850Y22372D01*
X02879Y22391D01*
X02936Y22410D01*
X03079Y22410D01*
X03136Y22391D01*
X03164Y22372D01*
X03193Y22334D01*
X03193Y22219D01*
X03164Y22181D01*
X03136Y22162D01*
X02850Y22638D02*
X02821Y22600D01*
X02793Y22581D01*
X02736Y22562D01*
X02707Y22562D01*
X02650Y22581D01*
X02621Y22600D01*
X02593Y22638D01*
X02593Y22715D01*
X02621Y22753D01*
X02650Y22772D01*
X02707Y22791D01*
X02736Y22791D01*
X02793Y22772D01*
X02821Y22753D01*
X02850Y22715D01*
X02850Y22638D01*
X02879Y22600D01*
X02907Y22581D01*
X02964Y22562D01*
X03079Y22562D01*
X03136Y22581D01*
X03164Y22600D01*
X03193Y22638D01*
X03193Y22715D01*
X03164Y22753D01*
X03136Y22772D01*
X03079Y22791D01*
X02964Y22791D01*
X02907Y22772D01*
X02879Y22753D01*
X02850Y22715D01*
X02593Y23038D02*
X02593Y23077D01*
X02621Y23115D01*
X02650Y23134D01*
X02707Y23153D01*
X02821Y23172D01*
X02964Y23172D01*
X03079Y23153D01*
X03136Y23134D01*
X03164Y23115D01*
X03193Y23077D01*
X03193Y23038D01*
X03164Y23000D01*
X03136Y22981D01*
X03079Y22962D01*
X02964Y22943D01*
X02821Y22943D01*
X02707Y22962D01*
X02650Y22981D01*
X02621Y23000D01*
X02593Y23038D01*
X02593Y23515D02*
X02593Y23438D01*
X02621Y23400D01*
X02650Y23381D01*
X02736Y23343D01*
X02850Y23324D01*
X03079Y23324D01*
X03136Y23343D01*
X03164Y23362D01*
X03193Y23400D01*
X03193Y23477D01*
X03164Y23515D01*
X03136Y23534D01*
X03079Y23553D01*
X02936Y23553D01*
X02879Y23534D01*
X02850Y23515D01*
X02821Y23477D01*
X02821Y23400D01*
X02850Y23362D01*
X02879Y23343D01*
X02936Y23324D01*
X06050Y32212D02*
X06021Y32174D01*
X05964Y32136D01*
X05879Y32079D01*
X05850Y32040D01*
X05850Y32002D01*
X05993Y32021D02*
X05964Y31983D01*
X05907Y31945D01*
X05793Y31926D01*
X05593Y31926D01*
X05479Y31945D01*
X05421Y31983D01*
X05393Y32021D01*
X05393Y32098D01*
X05421Y32136D01*
X05479Y32174D01*
X05593Y32193D01*
X05793Y32193D01*
X05907Y32174D01*
X05964Y32136D01*
X05993Y32098D01*
X05993Y32021D01*
X05593Y32536D02*
X05993Y32536D01*
X05364Y32440D02*
X05793Y32345D01*
X05793Y32593D01*
X03193Y30867D02*
X02593Y30867D01*
X03193Y31286D02*
X02907Y31152D01*
X03193Y31057D02*
X02593Y31057D01*
X02593Y31210D01*
X02621Y31248D01*
X02650Y31267D01*
X02707Y31286D01*
X02793Y31286D01*
X02850Y31267D01*
X02879Y31248D01*
X02907Y31210D01*
X02907Y31057D01*
X02879Y31591D02*
X02879Y31457D01*
X03193Y31457D02*
X02593Y31457D01*
X02593Y31648D01*
X02879Y31934D02*
X02907Y31991D01*
X02936Y32010D01*
X02993Y32029D01*
X03079Y32029D01*
X03136Y32010D01*
X03164Y31991D01*
X03193Y31953D01*
X03193Y31800D01*
X02593Y31800D01*
X02593Y31934D01*
X02621Y31972D01*
X02650Y31991D01*
X02707Y32010D01*
X02764Y32010D01*
X02821Y31991D01*
X02850Y31972D01*
X02879Y31934D01*
X02879Y31800D01*
X02593Y32162D02*
X02593Y32410D01*
X02821Y32276D01*
X02821Y32334D01*
X02850Y32372D01*
X02879Y32391D01*
X02936Y32410D01*
X03079Y32410D01*
X03136Y32391D01*
X03164Y32372D01*
X03193Y32334D01*
X03193Y32219D01*
X03164Y32181D01*
X03136Y32162D01*
X02850Y32638D02*
X02821Y32600D01*
X02793Y32581D01*
X02736Y32562D01*
X02707Y32562D01*
X02650Y32581D01*
X02621Y32600D01*
X02593Y32638D01*
X02593Y32715D01*
X02621Y32753D01*
X02650Y32772D01*
X02707Y32791D01*
X02736Y32791D01*
X02793Y32772D01*
X02821Y32753D01*
X02850Y32715D01*
X02850Y32638D01*
X02879Y32600D01*
X02907Y32581D01*
X02964Y32562D01*
X03079Y32562D01*
X03136Y32581D01*
X03164Y32600D01*
X03193Y32638D01*
X03193Y32715D01*
X03164Y32753D01*
X03136Y32772D01*
X03079Y32791D01*
X02964Y32791D01*
X02907Y32772D01*
X02879Y32753D01*
X02850Y32715D01*
X02593Y33038D02*
X02593Y33077D01*
X02621Y33115D01*
X02650Y33134D01*
X02707Y33153D01*
X02821Y33172D01*
X02964Y33172D01*
X03079Y33153D01*
X03136Y33134D01*
X03164Y33115D01*
X03193Y33077D01*
X03193Y33038D01*
X03164Y33000D01*
X03136Y32981D01*
X03079Y32962D01*
X02964Y32943D01*
X02821Y32943D01*
X02707Y32962D01*
X02650Y32981D01*
X02621Y33000D01*
X02593Y33038D01*
X02593Y33515D02*
X02593Y33438D01*
X02621Y33400D01*
X02650Y33381D01*
X02736Y33343D01*
X02850Y33324D01*
X03079Y33324D01*
X03136Y33343D01*
X03164Y33362D01*
X03193Y33400D01*
X03193Y33477D01*
X03164Y33515D01*
X03136Y33534D01*
X03079Y33553D01*
X02936Y33553D01*
X02879Y33534D01*
X02850Y33515D01*
X02821Y33477D01*
X02821Y33400D01*
X02850Y33362D01*
X02879Y33343D01*
X02936Y33324D01*
X06050Y02212D02*
X06021Y02174D01*
X05964Y02136D01*
X05879Y02079D01*
X05850Y02040D01*
X05850Y02002D01*
X05993Y02021D02*
X05964Y01983D01*
X05907Y01945D01*
X05793Y01926D01*
X05593Y01926D01*
X05479Y01945D01*
X05421Y01983D01*
X05393Y02021D01*
X05393Y02098D01*
X05421Y02136D01*
X05479Y02174D01*
X05593Y02193D01*
X05793Y02193D01*
X05907Y02174D01*
X05964Y02136D01*
X05993Y02098D01*
X05993Y02021D01*
X05393Y02326D02*
X05393Y02574D01*
X05621Y02440D01*
X05621Y02498D01*
X05650Y02536D01*
X05679Y02555D01*
X05736Y02574D01*
X05879Y02574D01*
X05936Y02555D01*
X05964Y02536D01*
X05993Y02498D01*
X05993Y02383D01*
X05964Y02345D01*
X05936Y02326D01*
X03193Y00867D02*
X02593Y00867D01*
X03193Y01286D02*
X02907Y01152D01*
X03193Y01057D02*
X02593Y01057D01*
X02593Y01210D01*
X02621Y01248D01*
X02650Y01267D01*
X02707Y01286D01*
X02793Y01286D01*
X02850Y01267D01*
X02879Y01248D01*
X02907Y01210D01*
X02907Y01057D01*
X02879Y01591D02*
X02879Y01457D01*
X03193Y01457D02*
X02593Y01457D01*
X02593Y01648D01*
X02879Y01934D02*
X02907Y01991D01*
X02936Y02010D01*
X02993Y02029D01*
X03079Y02029D01*
X03136Y02010D01*
X03164Y01991D01*
X03193Y01953D01*
X03193Y01800D01*
X02593Y01800D01*
X02593Y01934D01*
X02621Y01972D01*
X02650Y01991D01*
X02707Y02010D01*
X02764Y02010D01*
X02821Y01991D01*
X02850Y01972D01*
X02879Y01934D01*
X02879Y01800D01*
X02593Y02162D02*
X02593Y02410D01*
X02821Y02276D01*
X02821Y02334D01*
X02850Y02372D01*
X02879Y02391D01*
X02936Y02410D01*
X03079Y02410D01*
X03136Y02391D01*
X03164Y02372D01*
X03193Y02334D01*
X03193Y02219D01*
X03164Y02181D01*
X03136Y02162D01*
X02850Y02638D02*
X02821Y02600D01*
X02793Y02581D01*
X02736Y02562D01*
X02707Y02562D01*
X02650Y02581D01*
X02621Y02600D01*
X02593Y02638D01*
X02593Y02715D01*
X02621Y02753D01*
X02650Y02772D01*
X02707Y02791D01*
X02736Y02791D01*
X02793Y02772D01*
X02821Y02753D01*
X02850Y02715D01*
X02850Y02638D01*
X02879Y02600D01*
X02907Y02581D01*
X02964Y02562D01*
X03079Y02562D01*
X03136Y02581D01*
X03164Y02600D01*
X03193Y02638D01*
X03193Y02715D01*
X03164Y02753D01*
X03136Y02772D01*
X03079Y02791D01*
X02964Y02791D01*
X02907Y02772D01*
X02879Y02753D01*
X02850Y02715D01*
X02593Y03038D02*
X02593Y03077D01*
X02621Y03115D01*
X02650Y03134D01*
X02707Y03153D01*
X02821Y03172D01*
X02964Y03172D01*
X03079Y03153D01*
X03136Y03134D01*
X03164Y03115D01*
X03193Y03077D01*
X03193Y03038D01*
X03164Y03000D01*
X03136Y02981D01*
X03079Y02962D01*
X02964Y02943D01*
X02821Y02943D01*
X02707Y02962D01*
X02650Y02981D01*
X02621Y03000D01*
X02593Y03038D01*
X02593Y03515D02*
X02593Y03438D01*
X02621Y03400D01*
X02650Y03381D01*
X02736Y03343D01*
X02850Y03324D01*
X03079Y03324D01*
X03136Y03343D01*
X03164Y03362D01*
X03193Y03400D01*
X03193Y03477D01*
X03164Y03515D01*
X03136Y03534D01*
X03079Y03553D01*
X02936Y03553D01*
X02879Y03534D01*
X02850Y03515D01*
X02821Y03477D01*
X02821Y03400D01*
X02850Y03362D01*
X02879Y03343D01*
X02936Y03324D01*
X06050Y12212D02*
X06021Y12174D01*
X05964Y12136D01*
X05879Y12079D01*
X05850Y12040D01*
X05850Y12002D01*
X05993Y12021D02*
X05964Y11983D01*
X05907Y11945D01*
X05793Y11926D01*
X05593Y11926D01*
X05479Y11945D01*
X05421Y11983D01*
X05393Y12021D01*
X05393Y12098D01*
X05421Y12136D01*
X05479Y12174D01*
X05593Y12193D01*
X05793Y12193D01*
X05907Y12174D01*
X05964Y12136D01*
X05993Y12098D01*
X05993Y12021D01*
X05450Y12345D02*
X05421Y12364D01*
X05393Y12402D01*
X05393Y12498D01*
X05421Y12536D01*
X05450Y12555D01*
X05507Y12574D01*
X05564Y12574D01*
X05650Y12555D01*
X05993Y12326D01*
X05993Y12574D01*
X03193Y10867D02*
X02593Y10867D01*
X03193Y11286D02*
X02907Y11152D01*
X03193Y11057D02*
X02593Y11057D01*
X02593Y11210D01*
X02621Y11248D01*
X02650Y11267D01*
X02707Y11286D01*
X02793Y11286D01*
X02850Y11267D01*
X02879Y11248D01*
X02907Y11210D01*
X02907Y11057D01*
X02879Y11591D02*
X02879Y11457D01*
X03193Y11457D02*
X02593Y11457D01*
X02593Y11648D01*
X02879Y11934D02*
X02907Y11991D01*
X02936Y12010D01*
X02993Y12029D01*
X03079Y12029D01*
X03136Y12010D01*
X03164Y11991D01*
X03193Y11953D01*
X03193Y11800D01*
X02593Y11800D01*
X02593Y11934D01*
X02621Y11972D01*
X02650Y11991D01*
X02707Y12010D01*
X02764Y12010D01*
X02821Y11991D01*
X02850Y11972D01*
X02879Y11934D01*
X02879Y11800D01*
X02593Y12162D02*
X02593Y12410D01*
X02821Y12276D01*
X02821Y12334D01*
X02850Y12372D01*
X02879Y12391D01*
X02936Y12410D01*
X03079Y12410D01*
X03136Y12391D01*
X03164Y12372D01*
X03193Y12334D01*
X03193Y12219D01*
X03164Y12181D01*
X03136Y12162D01*
X02850Y12638D02*
X02821Y12600D01*
X02793Y12581D01*
X02736Y12562D01*
X02707Y12562D01*
X02650Y12581D01*
X02621Y12600D01*
X02593Y12638D01*
X02593Y12715D01*
X02621Y12753D01*
X02650Y12772D01*
X02707Y12791D01*
X02736Y12791D01*
X02793Y12772D01*
X02821Y12753D01*
X02850Y12715D01*
X02850Y12638D01*
X02879Y12600D01*
X02907Y12581D01*
X02964Y12562D01*
X03079Y12562D01*
X03136Y12581D01*
X03164Y12600D01*
X03193Y12638D01*
X03193Y12715D01*
X03164Y12753D01*
X03136Y12772D01*
X03079Y12791D01*
X02964Y12791D01*
X02907Y12772D01*
X02879Y12753D01*
X02850Y12715D01*
X02593Y13038D02*
X02593Y13077D01*
X02621Y13115D01*
X02650Y13134D01*
X02707Y13153D01*
X02821Y13172D01*
X02964Y13172D01*
X03079Y13153D01*
X03136Y13134D01*
X03164Y13115D01*
X03193Y13077D01*
X03193Y13038D01*
X03164Y13000D01*
X03136Y12981D01*
X03079Y12962D01*
X02964Y12943D01*
X02821Y12943D01*
X02707Y12962D01*
X02650Y12981D01*
X02621Y13000D01*
X02593Y13038D01*
X02593Y13515D02*
X02593Y13438D01*
X02621Y13400D01*
X02650Y13381D01*
X02736Y13343D01*
X02850Y13324D01*
X03079Y13324D01*
X03136Y13343D01*
X03164Y13362D01*
X03193Y13400D01*
X03193Y13477D01*
X03164Y13515D01*
X03136Y13534D01*
X03079Y13553D01*
X02936Y13553D01*
X02879Y13534D01*
X02850Y13515D01*
X02821Y13477D01*
X02821Y13400D01*
X02850Y13362D01*
X02879Y13343D01*
X02936Y13324D01*
X08179Y47527D02*
X08012Y47789D01*
X07893Y47527D02*
X07893Y48077D01*
X08084Y48077D01*
X08131Y48051D01*
X08155Y48025D01*
X08179Y47973D01*
X08179Y47894D01*
X08155Y47842D01*
X08131Y47815D01*
X08084Y47789D01*
X07893Y47789D01*
X08655Y47527D02*
X08369Y47527D01*
X08512Y47527D02*
X08512Y48077D01*
X08464Y47999D01*
X08417Y47946D01*
X08369Y47920D01*
X08845Y48025D02*
X08869Y48051D01*
X08917Y48077D01*
X09036Y48077D01*
X09083Y48051D01*
X09107Y48025D01*
X09131Y47973D01*
X09131Y47920D01*
X09107Y47842D01*
X08821Y47527D01*
X09131Y47527D01*
X06917Y46577D02*
X06965Y46577D01*
X07013Y46551D01*
X07036Y46525D01*
X07060Y46473D01*
X07084Y46368D01*
X07084Y46237D01*
X07060Y46132D01*
X07036Y46080D01*
X07013Y46054D01*
X06965Y46027D01*
X06917Y46027D01*
X06870Y46054D01*
X06846Y46080D01*
X06822Y46132D01*
X06798Y46237D01*
X06798Y46368D01*
X06822Y46473D01*
X06846Y46525D01*
X06870Y46551D01*
X06917Y46577D01*
X07298Y46080D02*
X07322Y46054D01*
X07298Y46027D01*
X07274Y46054D01*
X07298Y46080D01*
X07298Y46027D01*
X07631Y46577D02*
X07679Y46577D01*
X07727Y46551D01*
X07750Y46525D01*
X07774Y46473D01*
X07798Y46368D01*
X07798Y46237D01*
X07774Y46132D01*
X07750Y46080D01*
X07727Y46054D01*
X07679Y46027D01*
X07631Y46027D01*
X07584Y46054D01*
X07560Y46080D01*
X07536Y46132D01*
X07512Y46237D01*
X07512Y46368D01*
X07536Y46473D01*
X07560Y46525D01*
X07584Y46551D01*
X07631Y46577D01*
X08274Y46027D02*
X07988Y46027D01*
X08131Y46027D02*
X08131Y46577D01*
X08083Y46499D01*
X08036Y46446D01*
X07988Y46420D01*
X08774Y46027D02*
X08607Y46289D01*
X08488Y46027D02*
X08488Y46577D01*
X08679Y46577D01*
X08726Y46551D01*
X08750Y46525D01*
X08774Y46473D01*
X08774Y46394D01*
X08750Y46342D01*
X08726Y46315D01*
X08679Y46289D01*
X08488Y46289D01*
X08869Y45975D02*
X09250Y45975D01*
X09345Y46525D02*
X09369Y46551D01*
X09417Y46577D01*
X09536Y46577D01*
X09583Y46551D01*
X09607Y46525D01*
X09631Y46473D01*
X09631Y46420D01*
X09607Y46342D01*
X09321Y46027D01*
X09631Y46027D01*
X09797Y46577D02*
X09916Y46027D01*
X10012Y46420D01*
X10107Y46027D01*
X10226Y46577D01*
G54D14*
X19684Y09507D02*
X19550Y09793D01*
X19455Y09507D02*
X19455Y10107D01*
X19608Y10107D01*
X19646Y10079D01*
X19665Y10050D01*
X19684Y09993D01*
X19684Y09907D01*
X19665Y09850D01*
X19646Y09821D01*
X19608Y09793D01*
X19455Y09793D01*
X20027Y09907D02*
X20027Y09507D01*
X19931Y10136D02*
X19836Y09707D01*
X20084Y09707D01*
X05743Y13184D02*
X05457Y13050D01*
X05743Y12955D02*
X05143Y12955D01*
X05143Y13108D01*
X05171Y13146D01*
X05200Y13165D01*
X05257Y13184D01*
X05343Y13184D01*
X05400Y13165D01*
X05429Y13146D01*
X05457Y13108D01*
X05457Y12955D01*
X05400Y13412D02*
X05371Y13374D01*
X05343Y13355D01*
X05286Y13336D01*
X05257Y13336D01*
X05200Y13355D01*
X05171Y13374D01*
X05143Y13412D01*
X05143Y13489D01*
X05171Y13527D01*
X05200Y13546D01*
X05257Y13565D01*
X05286Y13565D01*
X05343Y13546D01*
X05371Y13527D01*
X05400Y13489D01*
X05400Y13412D01*
X05429Y13374D01*
X05457Y13355D01*
X05514Y13336D01*
X05629Y13336D01*
X05686Y13355D01*
X05714Y13374D01*
X05743Y13412D01*
X05743Y13489D01*
X05714Y13527D01*
X05686Y13546D01*
X05629Y13565D01*
X05514Y13565D01*
X05457Y13546D01*
X05429Y13527D01*
X05400Y13489D01*
X09934Y02007D02*
X09800Y02293D01*
X09705Y02007D02*
X09705Y02607D01*
X09858Y02607D01*
X09896Y02579D01*
X09915Y02550D01*
X09934Y02493D01*
X09934Y02407D01*
X09915Y02350D01*
X09896Y02321D01*
X09858Y02293D01*
X09705Y02293D01*
X10067Y02607D02*
X10334Y02607D01*
X10162Y02007D01*
X09934Y10507D02*
X09800Y10793D01*
X09705Y10507D02*
X09705Y11107D01*
X09858Y11107D01*
X09896Y11079D01*
X09915Y11050D01*
X09934Y10993D01*
X09934Y10907D01*
X09915Y10850D01*
X09896Y10821D01*
X09858Y10793D01*
X09705Y10793D01*
X10277Y11107D02*
X10200Y11107D01*
X10162Y11079D01*
X10143Y11050D01*
X10105Y10964D01*
X10086Y10850D01*
X10086Y10621D01*
X10105Y10564D01*
X10124Y10536D01*
X10162Y10507D01*
X10239Y10507D01*
X10277Y10536D01*
X10296Y10564D01*
X10315Y10621D01*
X10315Y10764D01*
X10296Y10821D01*
X10277Y10850D01*
X10239Y10879D01*
X10162Y10879D01*
X10124Y10850D01*
X10105Y10821D01*
X10086Y10764D01*
X19684Y06257D02*
X19550Y06543D01*
X19455Y06257D02*
X19455Y06857D01*
X19608Y06857D01*
X19646Y06829D01*
X19665Y06800D01*
X19684Y06743D01*
X19684Y06657D01*
X19665Y06600D01*
X19646Y06571D01*
X19608Y06543D01*
X19455Y06543D01*
X20046Y06857D02*
X19855Y06857D01*
X19836Y06571D01*
X19855Y06600D01*
X19893Y06629D01*
X19989Y06629D01*
X20027Y06600D01*
X20046Y06571D01*
X20065Y06514D01*
X20065Y06371D01*
X20046Y06314D01*
X20027Y06286D01*
X19989Y06257D01*
X19893Y06257D01*
X19855Y06286D01*
X19836Y06314D01*
X16184Y04757D02*
X16050Y05043D01*
X15955Y04757D02*
X15955Y05357D01*
X16108Y05357D01*
X16146Y05329D01*
X16165Y05300D01*
X16184Y05243D01*
X16184Y05157D01*
X16165Y05100D01*
X16146Y05071D01*
X16108Y05043D01*
X15955Y05043D01*
X16317Y05357D02*
X16565Y05357D01*
X16431Y05129D01*
X16489Y05129D01*
X16527Y05100D01*
X16546Y05071D01*
X16565Y05014D01*
X16565Y04871D01*
X16546Y04814D01*
X16527Y04786D01*
X16489Y04757D01*
X16374Y04757D01*
X16336Y04786D01*
X16317Y04814D01*
X18243Y21493D02*
X17957Y21359D01*
X18243Y21264D02*
X17643Y21264D01*
X17643Y21417D01*
X17671Y21455D01*
X17700Y21474D01*
X17757Y21493D01*
X17843Y21493D01*
X17900Y21474D01*
X17929Y21455D01*
X17957Y21417D01*
X17957Y21264D01*
X17700Y21645D02*
X17671Y21664D01*
X17643Y21702D01*
X17643Y21798D01*
X17671Y21836D01*
X17700Y21855D01*
X17757Y21874D01*
X17814Y21874D01*
X17900Y21855D01*
X18243Y21626D01*
X18243Y21874D01*
X18243Y22255D02*
X18243Y22026D01*
X18243Y22140D02*
X17643Y22140D01*
X17729Y22102D01*
X17786Y22064D01*
X17814Y22026D01*
X05743Y03184D02*
X05457Y03050D01*
X05743Y02955D02*
X05143Y02955D01*
X05143Y03108D01*
X05171Y03146D01*
X05200Y03165D01*
X05257Y03184D01*
X05343Y03184D01*
X05400Y03165D01*
X05429Y03146D01*
X05457Y03108D01*
X05457Y02955D01*
X05743Y03374D02*
X05743Y03450D01*
X05714Y03489D01*
X05686Y03508D01*
X05600Y03546D01*
X05486Y03565D01*
X05257Y03565D01*
X05200Y03546D01*
X05171Y03527D01*
X05143Y03489D01*
X05143Y03412D01*
X05171Y03374D01*
X05200Y03355D01*
X05257Y03336D01*
X05400Y03336D01*
X05457Y03355D01*
X05486Y03374D01*
X05514Y03412D01*
X05514Y03489D01*
X05486Y03527D01*
X05457Y03546D01*
X05400Y03565D01*
X05743Y32993D02*
X05457Y32859D01*
X05743Y32764D02*
X05143Y32764D01*
X05143Y32917D01*
X05171Y32955D01*
X05200Y32974D01*
X05257Y32993D01*
X05343Y32993D01*
X05400Y32974D01*
X05429Y32955D01*
X05457Y32917D01*
X05457Y32764D01*
X05743Y33374D02*
X05743Y33145D01*
X05743Y33259D02*
X05143Y33259D01*
X05229Y33221D01*
X05286Y33183D01*
X05314Y33145D01*
X05143Y33507D02*
X05143Y33755D01*
X05371Y33621D01*
X05371Y33679D01*
X05400Y33717D01*
X05429Y33736D01*
X05486Y33755D01*
X05629Y33755D01*
X05686Y33736D01*
X05714Y33717D01*
X05743Y33679D01*
X05743Y33564D01*
X05714Y33526D01*
X05686Y33507D01*
X05743Y22993D02*
X05457Y22859D01*
X05743Y22764D02*
X05143Y22764D01*
X05143Y22917D01*
X05171Y22955D01*
X05200Y22974D01*
X05257Y22993D01*
X05343Y22993D01*
X05400Y22974D01*
X05429Y22955D01*
X05457Y22917D01*
X05457Y22764D01*
X05743Y23374D02*
X05743Y23145D01*
X05743Y23259D02*
X05143Y23259D01*
X05229Y23221D01*
X05286Y23183D01*
X05314Y23145D01*
X05343Y23717D02*
X05743Y23717D01*
X05114Y23621D02*
X05543Y23526D01*
X05543Y23774D01*
X09743Y30007D02*
X09609Y30293D01*
X09514Y30007D02*
X09514Y30607D01*
X09667Y30607D01*
X09705Y30579D01*
X09724Y30550D01*
X09743Y30493D01*
X09743Y30407D01*
X09724Y30350D01*
X09705Y30321D01*
X09667Y30293D01*
X09514Y30293D01*
X10124Y30007D02*
X09895Y30007D01*
X10009Y30007D02*
X10009Y30607D01*
X09971Y30521D01*
X09933Y30464D01*
X09895Y30436D01*
X10486Y30607D02*
X10295Y30607D01*
X10276Y30321D01*
X10295Y30350D01*
X10333Y30379D01*
X10429Y30379D01*
X10467Y30350D01*
X10486Y30321D01*
X10505Y30264D01*
X10505Y30121D01*
X10486Y30064D01*
X10467Y30036D01*
X10429Y30007D01*
X10333Y30007D01*
X10295Y30036D01*
X10276Y30064D01*
X09743Y20007D02*
X09609Y20293D01*
X09514Y20007D02*
X09514Y20607D01*
X09667Y20607D01*
X09705Y20579D01*
X09724Y20550D01*
X09743Y20493D01*
X09743Y20407D01*
X09724Y20350D01*
X09705Y20321D01*
X09667Y20293D01*
X09514Y20293D01*
X10124Y20007D02*
X09895Y20007D01*
X10009Y20007D02*
X10009Y20607D01*
X09971Y20521D01*
X09933Y20464D01*
X09895Y20436D01*
X10467Y20607D02*
X10390Y20607D01*
X10352Y20579D01*
X10333Y20550D01*
X10295Y20464D01*
X10276Y20350D01*
X10276Y20121D01*
X10295Y20064D01*
X10314Y20036D01*
X10352Y20007D01*
X10429Y20007D01*
X10467Y20036D01*
X10486Y20064D01*
X10505Y20121D01*
X10505Y20264D01*
X10486Y20321D01*
X10467Y20350D01*
X10429Y20379D01*
X10352Y20379D01*
X10314Y20350D01*
X10295Y20321D01*
X10276Y20264D01*
X19493Y13507D02*
X19359Y13793D01*
X19264Y13507D02*
X19264Y14107D01*
X19417Y14107D01*
X19455Y14079D01*
X19474Y14050D01*
X19493Y13993D01*
X19493Y13907D01*
X19474Y13850D01*
X19455Y13821D01*
X19417Y13793D01*
X19264Y13793D01*
X19874Y13507D02*
X19645Y13507D01*
X19759Y13507D02*
X19759Y14107D01*
X19721Y14021D01*
X19683Y13964D01*
X19645Y13936D01*
X20007Y14107D02*
X20274Y14107D01*
X20102Y13507D01*
X15743Y21493D02*
X15457Y21359D01*
X15743Y21264D02*
X15143Y21264D01*
X15143Y21417D01*
X15171Y21455D01*
X15200Y21474D01*
X15257Y21493D01*
X15343Y21493D01*
X15400Y21474D01*
X15429Y21455D01*
X15457Y21417D01*
X15457Y21264D01*
X15743Y21874D02*
X15743Y21645D01*
X15743Y21759D02*
X15143Y21759D01*
X15229Y21721D01*
X15286Y21683D01*
X15314Y21645D01*
X15400Y22102D02*
X15371Y22064D01*
X15343Y22045D01*
X15286Y22026D01*
X15257Y22026D01*
X15200Y22045D01*
X15171Y22064D01*
X15143Y22102D01*
X15143Y22179D01*
X15171Y22217D01*
X15200Y22236D01*
X15257Y22255D01*
X15286Y22255D01*
X15343Y22236D01*
X15371Y22217D01*
X15400Y22179D01*
X15400Y22102D01*
X15429Y22064D01*
X15457Y22045D01*
X15514Y22026D01*
X15629Y22026D01*
X15686Y22045D01*
X15714Y22064D01*
X15743Y22102D01*
X15743Y22179D01*
X15714Y22217D01*
X15686Y22236D01*
X15629Y22255D01*
X15514Y22255D01*
X15457Y22236D01*
X15429Y22217D01*
X15400Y22179D01*
X16993Y21493D02*
X16707Y21359D01*
X16993Y21264D02*
X16393Y21264D01*
X16393Y21417D01*
X16421Y21455D01*
X16450Y21474D01*
X16507Y21493D01*
X16593Y21493D01*
X16650Y21474D01*
X16679Y21455D01*
X16707Y21417D01*
X16707Y21264D01*
X16993Y21874D02*
X16993Y21645D01*
X16993Y21759D02*
X16393Y21759D01*
X16479Y21721D01*
X16536Y21683D01*
X16564Y21645D01*
X16993Y22064D02*
X16993Y22140D01*
X16964Y22179D01*
X16936Y22198D01*
X16850Y22236D01*
X16736Y22255D01*
X16507Y22255D01*
X16450Y22236D01*
X16421Y22217D01*
X16393Y22179D01*
X16393Y22102D01*
X16421Y22064D01*
X16450Y22045D01*
X16507Y22026D01*
X16650Y22026D01*
X16707Y22045D01*
X16736Y22064D01*
X16764Y22102D01*
X16764Y22179D01*
X16736Y22217D01*
X16707Y22236D01*
X16650Y22255D01*
X14493Y21493D02*
X14207Y21359D01*
X14493Y21264D02*
X13893Y21264D01*
X13893Y21417D01*
X13921Y21455D01*
X13950Y21474D01*
X14007Y21493D01*
X14093Y21493D01*
X14150Y21474D01*
X14179Y21455D01*
X14207Y21417D01*
X14207Y21264D01*
X13950Y21645D02*
X13921Y21664D01*
X13893Y21702D01*
X13893Y21798D01*
X13921Y21836D01*
X13950Y21855D01*
X14007Y21874D01*
X14064Y21874D01*
X14150Y21855D01*
X14493Y21626D01*
X14493Y21874D01*
X13893Y22121D02*
X13893Y22160D01*
X13921Y22198D01*
X13950Y22217D01*
X14007Y22236D01*
X14121Y22255D01*
X14264Y22255D01*
X14379Y22236D01*
X14436Y22217D01*
X14464Y22198D01*
X14493Y22160D01*
X14493Y22121D01*
X14464Y22083D01*
X14436Y22064D01*
X14379Y22045D01*
X14264Y22026D01*
X14121Y22026D01*
X14007Y22045D01*
X13950Y22064D01*
X13921Y22083D01*
X13893Y22121D01*
X16184Y03507D02*
X16050Y03793D01*
X15955Y03507D02*
X15955Y04107D01*
X16108Y04107D01*
X16146Y04079D01*
X16165Y04050D01*
X16184Y03993D01*
X16184Y03907D01*
X16165Y03850D01*
X16146Y03821D01*
X16108Y03793D01*
X15955Y03793D01*
X16565Y03507D02*
X16336Y03507D01*
X16450Y03507D02*
X16450Y04107D01*
X16412Y04021D01*
X16374Y03964D01*
X16336Y03936D01*
X16184Y02257D02*
X16050Y02543D01*
X15955Y02257D02*
X15955Y02857D01*
X16108Y02857D01*
X16146Y02829D01*
X16165Y02800D01*
X16184Y02743D01*
X16184Y02657D01*
X16165Y02600D01*
X16146Y02571D01*
X16108Y02543D01*
X15955Y02543D01*
X16336Y02800D02*
X16355Y02829D01*
X16393Y02857D01*
X16489Y02857D01*
X16527Y02829D01*
X16546Y02800D01*
X16565Y02743D01*
X16565Y02686D01*
X16546Y02600D01*
X16317Y02257D01*
X16565Y02257D01*
G54D12*
X11291Y36383D02*
X11082Y36383D01*
X11082Y35798D02*
X11082Y36914D01*
X11381Y36914D01*
X11948Y35798D02*
X11590Y35798D01*
X11769Y35798D02*
X11769Y36914D01*
X11709Y36755D01*
X11649Y36649D01*
X11590Y36595D01*
X10452Y40369D02*
X10185Y40369D01*
X10185Y39845D02*
X10185Y40845D01*
X10566Y40845D01*
X10871Y40845D02*
X10871Y40036D01*
X10910Y39940D01*
X10948Y39893D01*
X11024Y39845D01*
X11176Y39845D01*
X11252Y39893D01*
X11291Y39940D01*
X11329Y40036D01*
X11329Y40845D01*
X11671Y39893D02*
X11786Y39845D01*
X11976Y39845D01*
X12052Y39893D01*
X12090Y39940D01*
X12129Y40036D01*
X12129Y40131D01*
X12090Y40226D01*
X12052Y40274D01*
X11976Y40321D01*
X11824Y40369D01*
X11748Y40417D01*
X11709Y40464D01*
X11671Y40560D01*
X11671Y40655D01*
X11709Y40750D01*
X11748Y40798D01*
X11824Y40845D01*
X12014Y40845D01*
X12129Y40798D01*
X12471Y40369D02*
X12738Y40369D01*
X12852Y39845D02*
X12471Y39845D01*
X12471Y40845D01*
X12852Y40845D01*
G54D15*
X05993Y16955D02*
X05393Y16955D01*
X05393Y17050D01*
X05421Y17108D01*
X05479Y17146D01*
X05536Y17165D01*
X05650Y17184D01*
X05736Y17184D01*
X05850Y17165D01*
X05907Y17146D01*
X05964Y17108D01*
X05993Y17050D01*
X05993Y16955D01*
X05593Y17527D02*
X05993Y17527D01*
X05364Y17431D02*
X05793Y17336D01*
X05793Y17584D01*
X03143Y15664D02*
X02543Y15664D01*
X02971Y15798D01*
X02543Y15931D01*
X03143Y15931D01*
X02829Y16255D02*
X02857Y16312D01*
X02886Y16331D01*
X02943Y16350D01*
X03029Y16350D01*
X03086Y16331D01*
X03114Y16312D01*
X03143Y16274D01*
X03143Y16121D01*
X02543Y16121D01*
X02543Y16255D01*
X02571Y16293D01*
X02600Y16312D01*
X02657Y16331D01*
X02714Y16331D01*
X02771Y16312D01*
X02800Y16293D01*
X02829Y16255D01*
X02829Y16121D01*
X03143Y16750D02*
X02857Y16616D01*
X03143Y16521D02*
X02543Y16521D01*
X02543Y16674D01*
X02571Y16712D01*
X02600Y16731D01*
X02657Y16750D01*
X02743Y16750D01*
X02800Y16731D01*
X02829Y16712D01*
X02857Y16674D01*
X02857Y16521D01*
X03143Y17131D02*
X03143Y16902D01*
X03143Y17016D02*
X02543Y17016D01*
X02629Y16978D01*
X02686Y16940D01*
X02714Y16902D01*
X02543Y17378D02*
X02543Y17417D01*
X02571Y17455D01*
X02600Y17474D01*
X02657Y17493D01*
X02771Y17512D01*
X02914Y17512D01*
X03029Y17493D01*
X03086Y17474D01*
X03114Y17455D01*
X03143Y17417D01*
X03143Y17378D01*
X03114Y17340D01*
X03086Y17321D01*
X03029Y17302D01*
X02914Y17283D01*
X02771Y17283D01*
X02657Y17302D01*
X02600Y17321D01*
X02571Y17340D01*
X02543Y17378D01*
X03143Y17893D02*
X03143Y17664D01*
X03143Y17778D02*
X02543Y17778D01*
X02629Y17740D01*
X02686Y17702D01*
X02714Y17664D01*
X02543Y18140D02*
X02543Y18179D01*
X02571Y18217D01*
X02600Y18236D01*
X02657Y18255D01*
X02771Y18274D01*
X02914Y18274D01*
X03029Y18255D01*
X03086Y18236D01*
X03114Y18217D01*
X03143Y18179D01*
X03143Y18140D01*
X03114Y18102D01*
X03086Y18083D01*
X03029Y18064D01*
X02914Y18045D01*
X02771Y18045D01*
X02657Y18064D01*
X02600Y18083D01*
X02571Y18102D01*
X02543Y18140D01*
X02543Y18521D02*
X02543Y18560D01*
X02571Y18598D01*
X02600Y18617D01*
X02657Y18636D01*
X02771Y18655D01*
X02914Y18655D01*
X03029Y18636D01*
X03086Y18617D01*
X03114Y18598D01*
X03143Y18560D01*
X03143Y18521D01*
X03114Y18483D01*
X03086Y18464D01*
X03029Y18445D01*
X02914Y18426D01*
X02771Y18426D01*
X02657Y18445D01*
X02600Y18464D01*
X02571Y18483D01*
X02543Y18521D01*
X05993Y06955D02*
X05393Y06955D01*
X05393Y07050D01*
X05421Y07108D01*
X05479Y07146D01*
X05536Y07165D01*
X05650Y07184D01*
X05736Y07184D01*
X05850Y07165D01*
X05907Y07146D01*
X05964Y07108D01*
X05993Y07050D01*
X05993Y06955D01*
X05393Y07546D02*
X05393Y07355D01*
X05679Y07336D01*
X05650Y07355D01*
X05621Y07393D01*
X05621Y07489D01*
X05650Y07527D01*
X05679Y07546D01*
X05736Y07565D01*
X05879Y07565D01*
X05936Y07546D01*
X05964Y07527D01*
X05993Y07489D01*
X05993Y07393D01*
X05964Y07355D01*
X05936Y07336D01*
X03143Y05664D02*
X02543Y05664D01*
X02971Y05798D01*
X02543Y05931D01*
X03143Y05931D01*
X02829Y06255D02*
X02857Y06312D01*
X02886Y06331D01*
X02943Y06350D01*
X03029Y06350D01*
X03086Y06331D01*
X03114Y06312D01*
X03143Y06274D01*
X03143Y06121D01*
X02543Y06121D01*
X02543Y06255D01*
X02571Y06293D01*
X02600Y06312D01*
X02657Y06331D01*
X02714Y06331D01*
X02771Y06312D01*
X02800Y06293D01*
X02829Y06255D01*
X02829Y06121D01*
X03143Y06750D02*
X02857Y06616D01*
X03143Y06521D02*
X02543Y06521D01*
X02543Y06674D01*
X02571Y06712D01*
X02600Y06731D01*
X02657Y06750D01*
X02743Y06750D01*
X02800Y06731D01*
X02829Y06712D01*
X02857Y06674D01*
X02857Y06521D01*
X03143Y07131D02*
X03143Y06902D01*
X03143Y07016D02*
X02543Y07016D01*
X02629Y06978D01*
X02686Y06940D01*
X02714Y06902D01*
X02543Y07378D02*
X02543Y07417D01*
X02571Y07455D01*
X02600Y07474D01*
X02657Y07493D01*
X02771Y07512D01*
X02914Y07512D01*
X03029Y07493D01*
X03086Y07474D01*
X03114Y07455D01*
X03143Y07417D01*
X03143Y07378D01*
X03114Y07340D01*
X03086Y07321D01*
X03029Y07302D01*
X02914Y07283D01*
X02771Y07283D01*
X02657Y07302D01*
X02600Y07321D01*
X02571Y07340D01*
X02543Y07378D01*
X03143Y07893D02*
X03143Y07664D01*
X03143Y07778D02*
X02543Y07778D01*
X02629Y07740D01*
X02686Y07702D01*
X02714Y07664D01*
X02543Y08140D02*
X02543Y08179D01*
X02571Y08217D01*
X02600Y08236D01*
X02657Y08255D01*
X02771Y08274D01*
X02914Y08274D01*
X03029Y08255D01*
X03086Y08236D01*
X03114Y08217D01*
X03143Y08179D01*
X03143Y08140D01*
X03114Y08102D01*
X03086Y08083D01*
X03029Y08064D01*
X02914Y08045D01*
X02771Y08045D01*
X02657Y08064D01*
X02600Y08083D01*
X02571Y08102D01*
X02543Y08140D01*
X02543Y08521D02*
X02543Y08560D01*
X02571Y08598D01*
X02600Y08617D01*
X02657Y08636D01*
X02771Y08655D01*
X02914Y08655D01*
X03029Y08636D01*
X03086Y08617D01*
X03114Y08598D01*
X03143Y08560D01*
X03143Y08521D01*
X03114Y08483D01*
X03086Y08464D01*
X03029Y08445D01*
X02914Y08426D01*
X02771Y08426D01*
X02657Y08445D01*
X02600Y08464D01*
X02571Y08483D01*
X02543Y08521D01*
X05993Y36955D02*
X05393Y36955D01*
X05393Y37050D01*
X05421Y37108D01*
X05479Y37146D01*
X05536Y37165D01*
X05650Y37184D01*
X05736Y37184D01*
X05850Y37165D01*
X05907Y37146D01*
X05964Y37108D01*
X05993Y37050D01*
X05993Y36955D01*
X05393Y37527D02*
X05393Y37450D01*
X05421Y37412D01*
X05450Y37393D01*
X05536Y37355D01*
X05650Y37336D01*
X05879Y37336D01*
X05936Y37355D01*
X05964Y37374D01*
X05993Y37412D01*
X05993Y37489D01*
X05964Y37527D01*
X05936Y37546D01*
X05879Y37565D01*
X05736Y37565D01*
X05679Y37546D01*
X05650Y37527D01*
X05621Y37489D01*
X05621Y37412D01*
X05650Y37374D01*
X05679Y37355D01*
X05736Y37336D01*
X03143Y35664D02*
X02543Y35664D01*
X02971Y35798D01*
X02543Y35931D01*
X03143Y35931D01*
X02829Y36255D02*
X02857Y36312D01*
X02886Y36331D01*
X02943Y36350D01*
X03029Y36350D01*
X03086Y36331D01*
X03114Y36312D01*
X03143Y36274D01*
X03143Y36121D01*
X02543Y36121D01*
X02543Y36255D01*
X02571Y36293D01*
X02600Y36312D01*
X02657Y36331D01*
X02714Y36331D01*
X02771Y36312D01*
X02800Y36293D01*
X02829Y36255D01*
X02829Y36121D01*
X03143Y36750D02*
X02857Y36616D01*
X03143Y36521D02*
X02543Y36521D01*
X02543Y36674D01*
X02571Y36712D01*
X02600Y36731D01*
X02657Y36750D01*
X02743Y36750D01*
X02800Y36731D01*
X02829Y36712D01*
X02857Y36674D01*
X02857Y36521D01*
X03143Y37131D02*
X03143Y36902D01*
X03143Y37016D02*
X02543Y37016D01*
X02629Y36978D01*
X02686Y36940D01*
X02714Y36902D01*
X02543Y37378D02*
X02543Y37417D01*
X02571Y37455D01*
X02600Y37474D01*
X02657Y37493D01*
X02771Y37512D01*
X02914Y37512D01*
X03029Y37493D01*
X03086Y37474D01*
X03114Y37455D01*
X03143Y37417D01*
X03143Y37378D01*
X03114Y37340D01*
X03086Y37321D01*
X03029Y37302D01*
X02914Y37283D01*
X02771Y37283D01*
X02657Y37302D01*
X02600Y37321D01*
X02571Y37340D01*
X02543Y37378D01*
X03143Y37893D02*
X03143Y37664D01*
X03143Y37778D02*
X02543Y37778D01*
X02629Y37740D01*
X02686Y37702D01*
X02714Y37664D01*
X02543Y38140D02*
X02543Y38179D01*
X02571Y38217D01*
X02600Y38236D01*
X02657Y38255D01*
X02771Y38274D01*
X02914Y38274D01*
X03029Y38255D01*
X03086Y38236D01*
X03114Y38217D01*
X03143Y38179D01*
X03143Y38140D01*
X03114Y38102D01*
X03086Y38083D01*
X03029Y38064D01*
X02914Y38045D01*
X02771Y38045D01*
X02657Y38064D01*
X02600Y38083D01*
X02571Y38102D01*
X02543Y38140D01*
X02543Y38521D02*
X02543Y38560D01*
X02571Y38598D01*
X02600Y38617D01*
X02657Y38636D01*
X02771Y38655D01*
X02914Y38655D01*
X03029Y38636D01*
X03086Y38617D01*
X03114Y38598D01*
X03143Y38560D01*
X03143Y38521D01*
X03114Y38483D01*
X03086Y38464D01*
X03029Y38445D01*
X02914Y38426D01*
X02771Y38426D01*
X02657Y38445D01*
X02600Y38464D01*
X02571Y38483D01*
X02543Y38521D01*
X05993Y26955D02*
X05393Y26955D01*
X05393Y27050D01*
X05421Y27108D01*
X05479Y27146D01*
X05536Y27165D01*
X05650Y27184D01*
X05736Y27184D01*
X05850Y27165D01*
X05907Y27146D01*
X05964Y27108D01*
X05993Y27050D01*
X05993Y26955D01*
X05393Y27317D02*
X05393Y27584D01*
X05993Y27412D01*
X03143Y25664D02*
X02543Y25664D01*
X02971Y25798D01*
X02543Y25931D01*
X03143Y25931D01*
X02829Y26255D02*
X02857Y26312D01*
X02886Y26331D01*
X02943Y26350D01*
X03029Y26350D01*
X03086Y26331D01*
X03114Y26312D01*
X03143Y26274D01*
X03143Y26121D01*
X02543Y26121D01*
X02543Y26255D01*
X02571Y26293D01*
X02600Y26312D01*
X02657Y26331D01*
X02714Y26331D01*
X02771Y26312D01*
X02800Y26293D01*
X02829Y26255D01*
X02829Y26121D01*
X03143Y26750D02*
X02857Y26616D01*
X03143Y26521D02*
X02543Y26521D01*
X02543Y26674D01*
X02571Y26712D01*
X02600Y26731D01*
X02657Y26750D01*
X02743Y26750D01*
X02800Y26731D01*
X02829Y26712D01*
X02857Y26674D01*
X02857Y26521D01*
X03143Y27131D02*
X03143Y26902D01*
X03143Y27016D02*
X02543Y27016D01*
X02629Y26978D01*
X02686Y26940D01*
X02714Y26902D01*
X02543Y27378D02*
X02543Y27417D01*
X02571Y27455D01*
X02600Y27474D01*
X02657Y27493D01*
X02771Y27512D01*
X02914Y27512D01*
X03029Y27493D01*
X03086Y27474D01*
X03114Y27455D01*
X03143Y27417D01*
X03143Y27378D01*
X03114Y27340D01*
X03086Y27321D01*
X03029Y27302D01*
X02914Y27283D01*
X02771Y27283D01*
X02657Y27302D01*
X02600Y27321D01*
X02571Y27340D01*
X02543Y27378D01*
X03143Y27893D02*
X03143Y27664D01*
X03143Y27778D02*
X02543Y27778D01*
X02629Y27740D01*
X02686Y27702D01*
X02714Y27664D01*
X02543Y28140D02*
X02543Y28179D01*
X02571Y28217D01*
X02600Y28236D01*
X02657Y28255D01*
X02771Y28274D01*
X02914Y28274D01*
X03029Y28255D01*
X03086Y28236D01*
X03114Y28217D01*
X03143Y28179D01*
X03143Y28140D01*
X03114Y28102D01*
X03086Y28083D01*
X03029Y28064D01*
X02914Y28045D01*
X02771Y28045D01*
X02657Y28064D01*
X02600Y28083D01*
X02571Y28102D01*
X02543Y28140D01*
X02543Y28521D02*
X02543Y28560D01*
X02571Y28598D01*
X02600Y28617D01*
X02657Y28636D01*
X02771Y28655D01*
X02914Y28655D01*
X03029Y28636D01*
X03086Y28617D01*
X03114Y28598D01*
X03143Y28560D01*
X03143Y28521D01*
X03114Y28483D01*
X03086Y28464D01*
X03029Y28445D01*
X02914Y28426D01*
X02771Y28426D01*
X02657Y28445D01*
X02600Y28464D01*
X02571Y28483D01*
X02543Y28521D01*
X09705Y23588D02*
X09705Y23988D01*
X09800Y23988D01*
X09858Y23969D01*
X09896Y23931D01*
X09915Y23893D01*
X09934Y23817D01*
X09934Y23760D01*
X09915Y23683D01*
X09896Y23645D01*
X09858Y23607D01*
X09800Y23588D01*
X09705Y23588D01*
X10124Y23588D02*
X10200Y23588D01*
X10239Y23607D01*
X10258Y23626D01*
X10296Y23683D01*
X10315Y23760D01*
X10315Y23912D01*
X10296Y23950D01*
X10277Y23969D01*
X10239Y23988D01*
X10162Y23988D01*
X10124Y23969D01*
X10105Y23950D01*
X10086Y23912D01*
X10086Y23817D01*
X10105Y23779D01*
X10124Y23760D01*
X10162Y23740D01*
X10239Y23740D01*
X10277Y23760D01*
X10296Y23779D01*
X10315Y23817D01*
X07662Y05455D02*
X07262Y05455D01*
X07262Y05550D01*
X07281Y05608D01*
X07319Y05646D01*
X07357Y05665D01*
X07433Y05684D01*
X07490Y05684D01*
X07567Y05665D01*
X07605Y05646D01*
X07643Y05608D01*
X07662Y05550D01*
X07662Y05455D01*
X07662Y06065D02*
X07662Y05836D01*
X07662Y05950D02*
X07262Y05950D01*
X07319Y05912D01*
X07357Y05874D01*
X07376Y05836D01*
X09705Y12088D02*
X09705Y12488D01*
X09800Y12488D01*
X09858Y12469D01*
X09896Y12431D01*
X09915Y12393D01*
X09934Y12317D01*
X09934Y12260D01*
X09915Y12183D01*
X09896Y12145D01*
X09858Y12107D01*
X09800Y12088D01*
X09705Y12088D01*
X10086Y12450D02*
X10105Y12469D01*
X10143Y12488D01*
X10239Y12488D01*
X10277Y12469D01*
X10296Y12450D01*
X10315Y12412D01*
X10315Y12374D01*
X10296Y12317D01*
X10067Y12088D01*
X10315Y12088D01*
X09705Y03588D02*
X09705Y03988D01*
X09800Y03988D01*
X09858Y03969D01*
X09896Y03931D01*
X09915Y03893D01*
X09934Y03817D01*
X09934Y03760D01*
X09915Y03683D01*
X09896Y03645D01*
X09858Y03607D01*
X09800Y03588D01*
X09705Y03588D01*
X10067Y03988D02*
X10315Y03988D01*
X10181Y03836D01*
X10239Y03836D01*
X10277Y03817D01*
X10296Y03798D01*
X10315Y03760D01*
X10315Y03664D01*
X10296Y03626D01*
X10277Y03607D01*
X10239Y03588D01*
X10124Y03588D01*
X10086Y03607D01*
X10067Y03626D01*
X09705Y33588D02*
X09705Y33988D01*
X09800Y33988D01*
X09858Y33969D01*
X09896Y33931D01*
X09915Y33893D01*
X09934Y33817D01*
X09934Y33760D01*
X09915Y33683D01*
X09896Y33645D01*
X09858Y33607D01*
X09800Y33588D01*
X09705Y33588D01*
X10162Y33817D02*
X10124Y33836D01*
X10105Y33855D01*
X10086Y33893D01*
X10086Y33912D01*
X10105Y33950D01*
X10124Y33969D01*
X10162Y33988D01*
X10239Y33988D01*
X10277Y33969D01*
X10296Y33950D01*
X10315Y33912D01*
X10315Y33893D01*
X10296Y33855D01*
X10277Y33836D01*
X10239Y33817D01*
X10162Y33817D01*
X10124Y33798D01*
X10105Y33779D01*
X10086Y33740D01*
X10086Y33664D01*
X10105Y33626D01*
X10124Y33607D01*
X10162Y33588D01*
X10239Y33588D01*
X10277Y33607D01*
X10296Y33626D01*
X10315Y33664D01*
X10315Y33740D01*
X10296Y33779D01*
X10277Y33798D01*
X10239Y33817D01*
X11162Y26764D02*
X10762Y26764D01*
X10762Y26859D01*
X10781Y26917D01*
X10819Y26955D01*
X10857Y26974D01*
X10933Y26993D01*
X10990Y26993D01*
X11067Y26974D01*
X11105Y26955D01*
X11143Y26917D01*
X11162Y26859D01*
X11162Y26764D01*
X11162Y27374D02*
X11162Y27145D01*
X11162Y27259D02*
X10762Y27259D01*
X10819Y27221D01*
X10857Y27183D01*
X10876Y27145D01*
X10762Y27621D02*
X10762Y27660D01*
X10781Y27698D01*
X10800Y27717D01*
X10838Y27736D01*
X10914Y27755D01*
X11010Y27755D01*
X11086Y27736D01*
X11124Y27717D01*
X11143Y27698D01*
X11162Y27660D01*
X11162Y27621D01*
X11143Y27583D01*
X11124Y27564D01*
X11086Y27545D01*
X11010Y27526D01*
X10914Y27526D01*
X10838Y27545D01*
X10800Y27564D01*
X10781Y27583D01*
X10762Y27621D01*
G54D16*
X18775Y02684D02*
X18094Y02684D01*
X18094Y02847D01*
X18127Y02888D01*
X18159Y02908D01*
X18224Y02928D01*
X18321Y02928D01*
X18386Y02908D01*
X18418Y02888D01*
X18451Y02847D01*
X18451Y02684D01*
X18775Y03336D02*
X18775Y03092D01*
X18775Y03214D02*
X18094Y03214D01*
X18191Y03173D01*
X18256Y03132D01*
X18289Y03092D01*
G54D17*
X15687Y45465D02*
X15687Y46170D01*
X15848Y46170D01*
X15889Y46137D01*
X15909Y46103D01*
X15929Y46036D01*
X15929Y45935D01*
X15909Y45868D01*
X15889Y45834D01*
X15848Y45801D01*
X15687Y45801D01*
X16091Y46103D02*
X16111Y46137D01*
X16151Y46170D01*
X16252Y46170D01*
X16293Y46137D01*
X16313Y46103D01*
X16333Y46036D01*
X16333Y45969D01*
X16313Y45868D01*
X16071Y45465D01*
X16333Y45465D01*
G54D16*
X18275Y44934D02*
X17594Y44934D01*
X17594Y45097D01*
X17627Y45138D01*
X17659Y45158D01*
X17724Y45178D01*
X17821Y45178D01*
X17886Y45158D01*
X17918Y45138D01*
X17951Y45097D01*
X17951Y44934D01*
X17594Y45321D02*
X17594Y45586D01*
X17854Y45443D01*
X17854Y45505D01*
X17886Y45545D01*
X17918Y45566D01*
X17983Y45586D01*
X18145Y45586D01*
X18210Y45566D01*
X18243Y45545D01*
X18275Y45505D01*
X18275Y45382D01*
X18243Y45342D01*
X18210Y45321D01*
X12275Y18434D02*
X11594Y18434D01*
X11594Y18597D01*
X11627Y18638D01*
X11659Y18658D01*
X11724Y18678D01*
X11821Y18678D01*
X11886Y18658D01*
X11918Y18638D01*
X11951Y18597D01*
X11951Y18434D01*
X11821Y19045D02*
X12275Y19045D01*
X11562Y18943D02*
X12048Y18842D01*
X12048Y19106D01*
G54D15*
X05624Y42192D02*
X05643Y42176D01*
X05662Y42126D01*
X05662Y42092D01*
X05643Y42042D01*
X05605Y42009D01*
X05567Y41992D01*
X05490Y41976D01*
X05433Y41976D01*
X05357Y41992D01*
X05319Y42009D01*
X05281Y42042D01*
X05262Y42092D01*
X05262Y42126D01*
X05281Y42176D01*
X05300Y42192D01*
X05433Y42392D02*
X05414Y42359D01*
X05395Y42342D01*
X05357Y42326D01*
X05338Y42326D01*
X05300Y42342D01*
X05281Y42359D01*
X05262Y42392D01*
X05262Y42459D01*
X05281Y42492D01*
X05300Y42509D01*
X05338Y42526D01*
X05357Y42526D01*
X05395Y42509D01*
X05414Y42492D01*
X05433Y42459D01*
X05433Y42392D01*
X05452Y42359D01*
X05471Y42342D01*
X05510Y42326D01*
X05586Y42326D01*
X05624Y42342D01*
X05643Y42359D01*
X05662Y42392D01*
X05662Y42459D01*
X05643Y42492D01*
X05624Y42509D01*
X05586Y42526D01*
X05510Y42526D01*
X05471Y42509D01*
X05452Y42492D01*
X05433Y42459D01*
X08800Y41018D02*
X08781Y41034D01*
X08762Y41068D01*
X08762Y41151D01*
X08781Y41184D01*
X08800Y41201D01*
X08838Y41218D01*
X08876Y41218D01*
X08933Y41201D01*
X09162Y41001D01*
X09162Y41218D01*
X08800Y41351D02*
X08781Y41367D01*
X08762Y41401D01*
X08762Y41484D01*
X08781Y41517D01*
X08800Y41534D01*
X08838Y41551D01*
X08876Y41551D01*
X08933Y41534D01*
X09162Y41334D01*
X09162Y41551D01*
X08762Y41767D02*
X08762Y41800D01*
X08781Y41834D01*
X08800Y41850D01*
X08838Y41867D01*
X08914Y41884D01*
X09010Y41884D01*
X09086Y41867D01*
X09124Y41850D01*
X09143Y41834D01*
X09162Y41800D01*
X09162Y41767D01*
X09143Y41734D01*
X09124Y41717D01*
X09086Y41700D01*
X09010Y41684D01*
X08914Y41684D01*
X08838Y41700D01*
X08800Y41717D01*
X08781Y41734D01*
X08762Y41767D01*
X08762Y42033D02*
X09086Y42033D01*
X09124Y42050D01*
X09143Y42067D01*
X09162Y42100D01*
X09162Y42167D01*
X09143Y42200D01*
X09124Y42217D01*
X09086Y42233D01*
X08762Y42233D01*
X09200Y42317D02*
X09200Y42584D01*
X08762Y42817D02*
X08762Y42751D01*
X08781Y42717D01*
X08800Y42701D01*
X08857Y42667D01*
X08933Y42651D01*
X09086Y42651D01*
X09124Y42667D01*
X09143Y42684D01*
X09162Y42717D01*
X09162Y42784D01*
X09143Y42817D01*
X09124Y42834D01*
X09086Y42851D01*
X08990Y42851D01*
X08952Y42834D01*
X08933Y42817D01*
X08914Y42784D01*
X08914Y42717D01*
X08933Y42684D01*
X08952Y42667D01*
X08990Y42651D01*
X08762Y42967D02*
X08762Y43184D01*
X08914Y43067D01*
X08914Y43117D01*
X08933Y43150D01*
X08952Y43167D01*
X08990Y43184D01*
X09086Y43184D01*
X09124Y43167D01*
X09143Y43150D01*
X09162Y43117D01*
X09162Y43017D01*
X09143Y42984D01*
X09124Y42967D01*
X08762Y43283D02*
X09162Y43400D01*
X08762Y43517D01*
X08014Y40323D02*
X08014Y40780D01*
X08243Y40551D02*
X07786Y40551D01*
X16942Y31876D02*
X16926Y31857D01*
X16876Y31838D01*
X16842Y31838D01*
X16792Y31857D01*
X16759Y31895D01*
X16742Y31933D01*
X16726Y32010D01*
X16726Y32067D01*
X16742Y32143D01*
X16759Y32181D01*
X16792Y32219D01*
X16842Y32238D01*
X16876Y32238D01*
X16926Y32219D01*
X16942Y32200D01*
X17059Y32238D02*
X17276Y32238D01*
X17159Y32086D01*
X17209Y32086D01*
X17242Y32067D01*
X17259Y32048D01*
X17276Y32010D01*
X17276Y31914D01*
X17259Y31876D01*
X17242Y31857D01*
X17209Y31838D01*
X17109Y31838D01*
X17076Y31857D01*
X17059Y31876D01*
X15768Y34950D02*
X15784Y34969D01*
X15818Y34988D01*
X15901Y34988D01*
X15934Y34969D01*
X15951Y34950D01*
X15968Y34912D01*
X15968Y34874D01*
X15951Y34817D01*
X15751Y34588D01*
X15968Y34588D01*
X16101Y34950D02*
X16117Y34969D01*
X16151Y34988D01*
X16234Y34988D01*
X16267Y34969D01*
X16284Y34950D01*
X16301Y34912D01*
X16301Y34874D01*
X16284Y34817D01*
X16084Y34588D01*
X16301Y34588D01*
X16517Y34988D02*
X16550Y34988D01*
X16584Y34969D01*
X16600Y34950D01*
X16617Y34912D01*
X16634Y34836D01*
X16634Y34740D01*
X16617Y34664D01*
X16600Y34626D01*
X16584Y34607D01*
X16550Y34588D01*
X16517Y34588D01*
X16484Y34607D01*
X16467Y34626D01*
X16450Y34664D01*
X16434Y34740D01*
X16434Y34836D01*
X16450Y34912D01*
X16467Y34950D01*
X16484Y34969D01*
X16517Y34988D01*
X16783Y34988D02*
X16783Y34664D01*
X16800Y34626D01*
X16817Y34607D01*
X16850Y34588D01*
X16917Y34588D01*
X16950Y34607D01*
X16967Y34626D01*
X16983Y34664D01*
X16983Y34988D01*
X17067Y34550D02*
X17334Y34550D01*
X17601Y34588D02*
X17401Y34588D01*
X17501Y34588D02*
X17501Y34988D01*
X17467Y34931D01*
X17434Y34893D01*
X17401Y34874D01*
X17900Y34988D02*
X17834Y34988D01*
X17800Y34969D01*
X17784Y34950D01*
X17750Y34893D01*
X17734Y34817D01*
X17734Y34664D01*
X17750Y34626D01*
X17767Y34607D01*
X17800Y34588D01*
X17867Y34588D01*
X17900Y34607D01*
X17917Y34626D01*
X17934Y34664D01*
X17934Y34760D01*
X17917Y34798D01*
X17900Y34817D01*
X17867Y34836D01*
X17800Y34836D01*
X17767Y34817D01*
X17750Y34798D01*
X17734Y34760D01*
X18033Y34988D02*
X18150Y34588D01*
X18267Y34988D01*
X17971Y33736D02*
X18428Y33736D01*
X18199Y33507D02*
X18199Y33964D01*
X06942Y06376D02*
X06926Y06357D01*
X06876Y06338D01*
X06842Y06338D01*
X06792Y06357D01*
X06759Y06395D01*
X06742Y06433D01*
X06726Y06510D01*
X06726Y06567D01*
X06742Y06643D01*
X06759Y06681D01*
X06792Y06719D01*
X06842Y06738D01*
X06876Y06738D01*
X06926Y06719D01*
X06942Y06700D01*
X07259Y06738D02*
X07092Y06738D01*
X07076Y06548D01*
X07092Y06567D01*
X07126Y06586D01*
X07209Y06586D01*
X07242Y06567D01*
X07259Y06548D01*
X07276Y06510D01*
X07276Y06414D01*
X07259Y06376D01*
X07242Y06357D01*
X07209Y06338D01*
X07126Y06338D01*
X07092Y06357D01*
X07076Y06376D01*
X05968Y09088D02*
X05768Y09088D01*
X05868Y09088D02*
X05868Y09488D01*
X05834Y09431D01*
X05801Y09393D01*
X05768Y09374D01*
X06184Y09488D02*
X06217Y09488D01*
X06251Y09469D01*
X06267Y09450D01*
X06284Y09412D01*
X06301Y09336D01*
X06301Y09240D01*
X06284Y09164D01*
X06267Y09126D01*
X06251Y09107D01*
X06217Y09088D01*
X06184Y09088D01*
X06151Y09107D01*
X06134Y09126D01*
X06117Y09164D01*
X06101Y09240D01*
X06101Y09336D01*
X06117Y09412D01*
X06134Y09450D01*
X06151Y09469D01*
X06184Y09488D01*
X06517Y09488D02*
X06550Y09488D01*
X06584Y09469D01*
X06600Y09450D01*
X06617Y09412D01*
X06634Y09336D01*
X06634Y09240D01*
X06617Y09164D01*
X06600Y09126D01*
X06584Y09107D01*
X06550Y09088D01*
X06517Y09088D01*
X06484Y09107D01*
X06467Y09126D01*
X06450Y09164D01*
X06434Y09240D01*
X06434Y09336D01*
X06450Y09412D01*
X06467Y09450D01*
X06484Y09469D01*
X06517Y09488D01*
X06783Y09488D02*
X06783Y09164D01*
X06800Y09126D01*
X06817Y09107D01*
X06850Y09088D01*
X06917Y09088D01*
X06950Y09107D01*
X06967Y09126D01*
X06983Y09164D01*
X06983Y09488D01*
X07067Y09050D02*
X07334Y09050D01*
X07601Y09088D02*
X07401Y09088D01*
X07501Y09088D02*
X07501Y09488D01*
X07467Y09431D01*
X07434Y09393D01*
X07401Y09374D01*
X07900Y09488D02*
X07834Y09488D01*
X07800Y09469D01*
X07784Y09450D01*
X07750Y09393D01*
X07734Y09317D01*
X07734Y09164D01*
X07750Y09126D01*
X07767Y09107D01*
X07800Y09088D01*
X07867Y09088D01*
X07900Y09107D01*
X07917Y09126D01*
X07934Y09164D01*
X07934Y09260D01*
X07917Y09298D01*
X07900Y09317D01*
X07867Y09336D01*
X07800Y09336D01*
X07767Y09317D01*
X07750Y09298D01*
X07734Y09260D01*
X08033Y09488D02*
X08150Y09088D01*
X08267Y09488D01*
X07971Y08236D02*
X08428Y08236D01*
X08199Y08007D02*
X08199Y08464D01*
X11874Y28275D02*
X11893Y28259D01*
X11912Y28209D01*
X11912Y28175D01*
X11893Y28125D01*
X11855Y28092D01*
X11817Y28075D01*
X11740Y28059D01*
X11683Y28059D01*
X11607Y28075D01*
X11569Y28092D01*
X11531Y28125D01*
X11512Y28175D01*
X11512Y28209D01*
X11531Y28259D01*
X11550Y28275D01*
X11912Y28609D02*
X11912Y28409D01*
X11912Y28509D02*
X11512Y28509D01*
X11569Y28475D01*
X11607Y28442D01*
X11626Y28409D01*
X11512Y28825D02*
X11512Y28858D01*
X11531Y28892D01*
X11550Y28908D01*
X11588Y28925D01*
X11664Y28942D01*
X11760Y28942D01*
X11836Y28925D01*
X11874Y28908D01*
X11893Y28892D01*
X11912Y28858D01*
X11912Y28825D01*
X11893Y28792D01*
X11874Y28775D01*
X11836Y28758D01*
X11760Y28742D01*
X11664Y28742D01*
X11588Y28758D01*
X11550Y28775D01*
X11531Y28792D01*
X11512Y28825D01*
X09162Y27468D02*
X09162Y27268D01*
X09162Y27368D02*
X08762Y27368D01*
X08819Y27334D01*
X08857Y27301D01*
X08876Y27268D01*
X08762Y27684D02*
X08762Y27717D01*
X08781Y27751D01*
X08800Y27767D01*
X08838Y27784D01*
X08914Y27801D01*
X09010Y27801D01*
X09086Y27784D01*
X09124Y27767D01*
X09143Y27751D01*
X09162Y27717D01*
X09162Y27684D01*
X09143Y27651D01*
X09124Y27634D01*
X09086Y27617D01*
X09010Y27601D01*
X08914Y27601D01*
X08838Y27617D01*
X08800Y27634D01*
X08781Y27651D01*
X08762Y27684D01*
X08762Y28017D02*
X08762Y28050D01*
X08781Y28084D01*
X08800Y28100D01*
X08838Y28117D01*
X08914Y28134D01*
X09010Y28134D01*
X09086Y28117D01*
X09124Y28100D01*
X09143Y28084D01*
X09162Y28050D01*
X09162Y28017D01*
X09143Y27984D01*
X09124Y27967D01*
X09086Y27950D01*
X09010Y27934D01*
X08914Y27934D01*
X08838Y27950D01*
X08800Y27967D01*
X08781Y27984D01*
X08762Y28017D01*
X08762Y28283D02*
X09086Y28283D01*
X09124Y28300D01*
X09143Y28317D01*
X09162Y28350D01*
X09162Y28417D01*
X09143Y28450D01*
X09124Y28467D01*
X09086Y28483D01*
X08762Y28483D01*
X09200Y28567D02*
X09200Y28834D01*
X09162Y29101D02*
X09162Y28901D01*
X09162Y29001D02*
X08762Y29001D01*
X08819Y28967D01*
X08857Y28934D01*
X08876Y28901D01*
X08762Y29400D02*
X08762Y29334D01*
X08781Y29300D01*
X08800Y29284D01*
X08857Y29250D01*
X08933Y29234D01*
X09086Y29234D01*
X09124Y29250D01*
X09143Y29267D01*
X09162Y29300D01*
X09162Y29367D01*
X09143Y29400D01*
X09124Y29417D01*
X09086Y29434D01*
X08990Y29434D01*
X08952Y29417D01*
X08933Y29400D01*
X08914Y29367D01*
X08914Y29300D01*
X08933Y29267D01*
X08952Y29250D01*
X08990Y29234D01*
X08762Y29533D02*
X09162Y29650D01*
X08762Y29767D01*
X10014Y29471D02*
X10014Y29928D01*
X10243Y29699D02*
X09786Y29699D01*
X10374Y42525D02*
X10393Y42509D01*
X10412Y42459D01*
X10412Y42425D01*
X10393Y42375D01*
X10355Y42342D01*
X10317Y42325D01*
X10240Y42309D01*
X10183Y42309D01*
X10107Y42325D01*
X10069Y42342D01*
X10031Y42375D01*
X10012Y42425D01*
X10012Y42459D01*
X10031Y42509D01*
X10050Y42525D01*
X10412Y42859D02*
X10412Y42659D01*
X10412Y42759D02*
X10012Y42759D01*
X10069Y42725D01*
X10107Y42692D01*
X10126Y42659D01*
X10012Y43175D02*
X10012Y43008D01*
X10202Y42992D01*
X10183Y43008D01*
X10164Y43042D01*
X10164Y43125D01*
X10183Y43158D01*
X10202Y43175D01*
X10240Y43192D01*
X10336Y43192D01*
X10374Y43175D01*
X10393Y43158D01*
X10412Y43125D01*
X10412Y43042D01*
X10393Y43008D01*
X10374Y42992D01*
X12800Y41518D02*
X12781Y41534D01*
X12762Y41568D01*
X12762Y41651D01*
X12781Y41684D01*
X12800Y41701D01*
X12838Y41718D01*
X12876Y41718D01*
X12933Y41701D01*
X13162Y41501D01*
X13162Y41718D01*
X12800Y41851D02*
X12781Y41867D01*
X12762Y41901D01*
X12762Y41984D01*
X12781Y42017D01*
X12800Y42034D01*
X12838Y42051D01*
X12876Y42051D01*
X12933Y42034D01*
X13162Y41834D01*
X13162Y42051D01*
X12762Y42267D02*
X12762Y42300D01*
X12781Y42334D01*
X12800Y42350D01*
X12838Y42367D01*
X12914Y42384D01*
X13010Y42384D01*
X13086Y42367D01*
X13124Y42350D01*
X13143Y42334D01*
X13162Y42300D01*
X13162Y42267D01*
X13143Y42234D01*
X13124Y42217D01*
X13086Y42200D01*
X13010Y42184D01*
X12914Y42184D01*
X12838Y42200D01*
X12800Y42217D01*
X12781Y42234D01*
X12762Y42267D01*
X12762Y42533D02*
X13086Y42533D01*
X13124Y42550D01*
X13143Y42567D01*
X13162Y42600D01*
X13162Y42667D01*
X13143Y42700D01*
X13124Y42717D01*
X13086Y42733D01*
X12762Y42733D01*
X13200Y42817D02*
X13200Y43084D01*
X13162Y43351D02*
X13162Y43151D01*
X13162Y43251D02*
X12762Y43251D01*
X12819Y43217D01*
X12857Y43184D01*
X12876Y43151D01*
X12762Y43650D02*
X12762Y43584D01*
X12781Y43550D01*
X12800Y43534D01*
X12857Y43500D01*
X12933Y43484D01*
X13086Y43484D01*
X13124Y43500D01*
X13143Y43517D01*
X13162Y43550D01*
X13162Y43617D01*
X13143Y43650D01*
X13124Y43667D01*
X13086Y43684D01*
X12990Y43684D01*
X12952Y43667D01*
X12933Y43650D01*
X12914Y43617D01*
X12914Y43550D01*
X12933Y43517D01*
X12952Y43500D01*
X12990Y43484D01*
X12762Y43783D02*
X13162Y43900D01*
X12762Y44017D01*
X12014Y41323D02*
X12014Y41780D01*
X12243Y41551D02*
X11786Y41551D01*
X05874Y19184D02*
X05893Y19165D01*
X05912Y19108D01*
X05912Y19070D01*
X05893Y19012D01*
X05855Y18974D01*
X05817Y18955D01*
X05740Y18936D01*
X05683Y18936D01*
X05607Y18955D01*
X05569Y18974D01*
X05531Y19012D01*
X05512Y19070D01*
X05512Y19108D01*
X05531Y19165D01*
X05550Y19184D01*
X05512Y19527D02*
X05512Y19450D01*
X05531Y19412D01*
X05550Y19393D01*
X05607Y19355D01*
X05683Y19336D01*
X05836Y19336D01*
X05874Y19355D01*
X05893Y19374D01*
X05912Y19412D01*
X05912Y19489D01*
X05893Y19527D01*
X05874Y19546D01*
X05836Y19565D01*
X05740Y19565D01*
X05702Y19546D01*
X05683Y19527D01*
X05664Y19489D01*
X05664Y19412D01*
X05683Y19374D01*
X05702Y19355D01*
X05740Y19336D01*
G54D14*
X08993Y25257D02*
X08859Y25543D01*
X08764Y25257D02*
X08764Y25857D01*
X08917Y25857D01*
X08955Y25829D01*
X08974Y25800D01*
X08993Y25743D01*
X08993Y25657D01*
X08974Y25600D01*
X08955Y25571D01*
X08917Y25543D01*
X08764Y25543D01*
X09145Y25800D02*
X09164Y25829D01*
X09202Y25857D01*
X09298Y25857D01*
X09336Y25829D01*
X09355Y25800D01*
X09374Y25743D01*
X09374Y25686D01*
X09355Y25600D01*
X09126Y25257D01*
X09374Y25257D01*
X09526Y25800D02*
X09545Y25829D01*
X09583Y25857D01*
X09679Y25857D01*
X09717Y25829D01*
X09736Y25800D01*
X09755Y25743D01*
X09755Y25686D01*
X09736Y25600D01*
X09507Y25257D01*
X09755Y25257D01*
M02*
