M48
METRIC,TZ
T1C0.201
T2C0.813
T3C0.889
T4C1.016
T5C1.270
T6C1.397
%
G90
G05
T1
X59.055Y0.000
T2
X16.510Y51.435
X16.510Y48.895
X16.510Y46.355
X16.510Y20.955
X19.050Y20.955
X20.320Y109.855
X20.320Y104.775
X24.130Y46.355
X24.130Y36.195
X25.400Y73.660
X25.400Y71.120
X30.480Y109.855
X30.480Y107.315
X38.100Y118.745
X39.370Y113.665
X39.370Y103.505
X39.370Y30.480
X40.640Y118.745
X41.910Y85.725
X41.910Y33.020
X41.910Y30.480
X42.545Y22.225
X43.180Y118.745
X44.450Y85.725
X45.085Y24.765
X45.085Y22.225
X49.530Y12.700
X49.530Y10.160
X49.530Y7.620
X49.530Y5.080
X49.530Y2.540
T3
X20.320Y83.185
X20.320Y57.785
X20.320Y28.575
X20.320Y6.985
X21.590Y19.685
X21.590Y9.525
X30.480Y83.185
X30.480Y74.295
X30.480Y64.135
X30.480Y57.785
X30.480Y28.575
X30.480Y6.985
T4
X11.430Y109.855
X11.430Y107.315
X11.430Y104.775
X11.430Y97.155
X11.430Y92.075
X11.430Y84.455
X11.430Y81.915
X11.430Y79.375
X11.430Y71.755
X11.430Y66.675
X11.430Y59.055
X11.430Y56.515
X11.430Y53.975
X11.430Y46.355
X11.430Y41.275
X11.430Y33.655
X11.430Y31.115
X11.430Y28.575
X11.430Y20.955
X11.430Y15.875
X11.430Y8.255
X11.430Y5.715
X11.430Y3.175
X16.510Y89.535
X16.510Y79.375
X16.510Y64.135
X16.510Y53.975
X16.510Y38.735
X16.510Y28.575
X16.510Y13.335
X16.510Y3.175
X18.415Y67.310
X20.320Y79.375
X20.320Y53.975
X20.320Y24.765
X20.320Y3.175
X28.575Y67.310
X30.480Y79.375
X30.480Y53.975
X30.480Y24.765
X30.480Y3.175
X36.195Y10.160
X36.195Y6.985
X36.195Y3.810
X38.735Y60.325
X38.735Y50.165
X41.910Y60.325
X41.910Y50.165
X45.085Y60.325
X45.085Y50.165
X45.085Y32.385
X45.085Y27.305
X45.085Y19.050
X46.355Y10.160
X46.355Y6.985
X46.355Y3.810
X48.260Y60.325
X48.260Y50.165
X55.245Y32.385
X55.245Y27.305
X55.245Y19.050
T5
X11.430Y117.475
X31.750Y117.475
T6
X19.050Y97.155
X24.130Y97.155
X34.290Y97.155
X39.370Y97.155
T0
M30
