G04 (created by PCBNEW-RS274X (2012-apr-16-27)-stable) date Sat 25 Jan 2014 11:43:21 AM EET*
G01*
G70*
G90*
%MOIN*%
G04 Gerber Fmt 3.4, Leading zero omitted, Abs format*
%FSLAX34Y34*%
G04 APERTURE LIST*
%ADD10C,0.006000*%
%ADD11C,0.066900*%
%ADD12R,0.078700X0.078700*%
%ADD13C,0.078700*%
%ADD14C,0.157500*%
%ADD15R,0.066900X0.066900*%
%ADD16R,0.063000X0.063000*%
%ADD17C,0.063000*%
%ADD18R,0.074800X0.074800*%
%ADD19C,0.074800*%
G04 APERTURE END LIST*
G54D10*
G54D11*
X48000Y-42000D03*
X48000Y-43000D03*
X49000Y-43000D03*
X44750Y-43250D03*
X44750Y-44250D03*
X45750Y-44250D03*
G54D12*
X77250Y-31000D03*
G54D13*
X78250Y-31000D03*
X79250Y-31000D03*
G54D12*
X57250Y-31000D03*
G54D13*
X58250Y-31000D03*
X59250Y-31000D03*
G54D12*
X67250Y-31000D03*
G54D13*
X68250Y-31000D03*
X69250Y-31000D03*
G54D12*
X37250Y-31000D03*
G54D13*
X38250Y-31000D03*
X39250Y-31000D03*
G54D12*
X47250Y-31000D03*
G54D13*
X48250Y-31000D03*
X49250Y-31000D03*
X82250Y-31000D03*
X82250Y-39000D03*
G54D11*
X46750Y-48250D03*
X46750Y-44250D03*
X47250Y-33000D03*
X51250Y-33000D03*
X37250Y-34500D03*
X37250Y-38500D03*
X45750Y-34500D03*
X45750Y-38500D03*
X43500Y-48250D03*
X43500Y-44250D03*
X40000Y-40750D03*
X40000Y-44750D03*
X55750Y-45500D03*
X59750Y-45500D03*
X37250Y-33000D03*
X41250Y-33000D03*
X67250Y-33000D03*
X71250Y-33000D03*
X57250Y-33000D03*
X61250Y-33000D03*
X67250Y-38500D03*
X67250Y-34500D03*
X57250Y-38500D03*
X57250Y-34500D03*
X48750Y-44250D03*
X48750Y-48250D03*
X55750Y-43000D03*
X59750Y-43000D03*
X55750Y-44250D03*
X59750Y-44250D03*
X55750Y-41750D03*
X59750Y-41750D03*
X38750Y-40750D03*
X38750Y-44750D03*
X37500Y-40750D03*
X37500Y-44750D03*
G54D14*
X74250Y-42000D03*
X74250Y-40000D03*
X74250Y-36000D03*
X74250Y-34000D03*
G54D12*
X52250Y-31000D03*
G54D13*
X54250Y-31000D03*
G54D12*
X42250Y-31000D03*
G54D13*
X44250Y-31000D03*
G54D12*
X72250Y-31000D03*
G54D13*
X74250Y-31000D03*
G54D12*
X62250Y-31000D03*
G54D13*
X64250Y-31000D03*
G54D15*
X58750Y-38500D03*
G54D11*
X58750Y-34500D03*
G54D15*
X43750Y-35000D03*
G54D11*
X39750Y-35000D03*
G54D15*
X47250Y-38500D03*
G54D11*
X47250Y-34500D03*
G54D15*
X38750Y-38500D03*
G54D11*
X38750Y-34500D03*
G54D15*
X68750Y-38500D03*
G54D11*
X68750Y-34500D03*
G54D15*
X65250Y-38500D03*
G54D11*
X61250Y-38500D03*
G54D16*
X37000Y-46000D03*
G54D17*
X38000Y-46000D03*
X39000Y-46000D03*
X40000Y-46000D03*
X41000Y-46000D03*
G54D16*
X82750Y-43500D03*
G54D17*
X82750Y-42500D03*
X82750Y-41500D03*
G54D12*
X80750Y-42000D03*
G54D13*
X76750Y-42000D03*
G54D12*
X54250Y-36000D03*
G54D13*
X50250Y-36000D03*
G54D12*
X77250Y-34500D03*
G54D13*
X79250Y-34500D03*
G54D18*
X69750Y-44000D03*
G54D19*
X69750Y-43000D03*
G54D18*
X44250Y-34000D03*
G54D19*
X44250Y-33000D03*
G54D18*
X65000Y-36500D03*
G54D19*
X64000Y-36500D03*
G54D18*
X78250Y-38500D03*
G54D19*
X79250Y-38500D03*
G54D17*
X54250Y-33000D03*
X56250Y-33000D03*
X55250Y-33000D03*
G54D11*
X62500Y-37750D03*
X62500Y-33750D03*
M02*
