M48
;DRILL file {Pcbnew (2012-apr-16-27)-stable} date Sat 25 Jan 2014 11:44:02 AM EET
;FORMAT={-:-/ absolute / metric / decimal}
FMAT,2
METRIC,TZ
T1C0.813
T2C0.889
T3C1.016
T4C1.270
T5C1.397
%
G90
G05
M71
T1
X93.980Y116.840
X96.520Y116.840
X99.060Y116.840
X101.600Y116.840
X104.140Y116.840
X112.395Y83.820
X112.395Y86.360
X113.665Y109.855
X113.665Y112.395
X116.205Y112.395
X121.920Y106.680
X121.920Y109.220
X124.460Y109.220
X127.635Y91.440
X137.795Y83.820
X137.795Y91.440
X140.335Y83.820
X142.875Y83.820
X162.560Y92.710
X165.100Y92.710
X177.165Y109.220
X177.165Y111.760
X194.945Y106.680
X196.215Y87.630
X198.755Y97.790
X201.295Y87.630
X201.295Y97.790
X205.105Y106.680
X210.185Y105.410
X210.185Y107.950
X210.185Y110.490
T2
X98.425Y87.630
X98.425Y97.790
X100.965Y88.900
X111.125Y88.900
X120.015Y87.630
X120.015Y97.790
X149.225Y87.630
X149.225Y97.790
X155.575Y97.790
X165.735Y97.790
X174.625Y87.630
X174.625Y97.790
T3
X94.615Y78.740
X94.615Y83.820
X94.615Y87.630
X94.615Y97.790
X95.250Y103.505
X95.250Y113.665
X97.155Y78.740
X98.425Y103.505
X98.425Y113.665
X99.695Y78.740
X101.600Y103.505
X101.600Y113.665
X104.775Y83.820
X107.315Y78.740
X110.490Y112.395
X110.490Y122.555
X112.395Y78.740
X116.205Y87.630
X116.205Y97.790
X118.745Y112.395
X118.745Y122.555
X120.015Y78.740
X120.015Y83.820
X122.555Y78.740
X123.825Y112.395
X123.825Y122.555
X125.095Y78.740
X130.175Y83.820
X132.715Y78.740
X137.795Y78.740
X141.605Y106.045
X141.605Y109.220
X141.605Y112.395
X141.605Y115.570
X145.415Y78.740
X145.415Y83.820
X145.415Y87.630
X145.415Y97.790
X147.955Y78.740
X150.495Y78.740
X151.765Y106.045
X151.765Y109.220
X151.765Y112.395
X151.765Y115.570
X155.575Y83.820
X158.115Y78.740
X158.750Y85.725
X158.750Y95.885
X163.195Y78.740
X170.815Y78.740
X170.815Y83.820
X170.815Y87.630
X170.815Y97.790
X173.355Y78.740
X175.895Y78.740
X180.975Y83.820
X183.515Y78.740
X188.595Y78.740
X196.215Y78.740
X198.755Y78.740
X201.295Y78.740
T4
X208.915Y78.740
X208.915Y99.060
T5
X188.595Y86.360
X188.595Y91.440
X188.595Y101.600
X188.595Y106.680
T0
M30
